<?xml version="1.0" encoding="UTF-8"?>
<svg width="512px" height="512px" viewBox="0 0 512 512" version="1.1" xmlns="http://www.w3.org/2000/svg" xmlns:xlink="http://www.w3.org/1999/xlink">
    <!-- Generator: Sketch 57 (83077) - https://sketch.com -->
    <title>instagram</title>
    <desc>Created with Sketch.</desc>
    <g id="Page-1" stroke="none" stroke-width="1" fill="none" fill-rule="evenodd">
        <g id="instagram" fill-rule="nonzero">
            <circle id="Oval" fill="#6C27B3" cx="256" cy="256" r="256"></circle>
            <path d="M374.71,132.922 C344.123,136.794 312.231,136.659 280.135,133.603 C235.313,130.155 169.805,109.468 145.67,150.842 C106.898,217.078 126.021,301.877 135.056,376.92 L269.793,511.628 C400.181,504.705 504.679,400.221 511.624,269.838 L374.71,132.922 Z" id="Path" fill="#501A96"></path>
            <g id="Group" transform="translate(109.000000, 109.000000)" fill="#FFFFFF">
                <path d="M206.227,0.468 L87.772,0.468 C39.632,0.468 0.468,39.632 0.468,87.772 L0.468,206.227 C0.468,254.365 39.632,293.532 87.773,293.532 L206.228,293.532 C254.366,293.532 293.533,254.367 293.533,206.227 L293.533,87.772 C293.533,39.632 254.367,0.468 206.227,0.468 L206.227,0.468 Z M264.05,206.228 C264.05,238.162 238.162,264.05 206.228,264.05 L87.773,264.05 C55.839,264.05 29.951,238.162 29.951,206.228 L29.951,87.773 C29.951,55.839 55.839,29.95 87.773,29.95 L206.228,29.95 C238.162,29.95 264.05,55.84 264.05,87.773 L264.05,206.228 Z" id="Shape"></path>
                <path d="M147,71.202 C105.206,71.202 71.202,105.206 71.202,147 C71.202,188.791 105.206,222.795 147,222.795 C188.794,222.795 222.795,188.794 222.795,147 C222.795,105.206 188.794,71.202 147,71.202 L147,71.202 Z M147,193.313 C121.421,193.313 100.684,172.58 100.684,147 C100.684,121.42 121.421,100.684 147,100.684 C172.579,100.684 193.313,121.419 193.313,147 C193.313,172.579 172.579,193.313 147,193.313 L147,193.313 Z" id="Shape"></path>
            </g>
            <g id="Group" transform="translate(255.000000, 109.000000)" fill="#D1D1D1">
                <path d="M95.103,71.774 C95.103,81.804 86.971,89.937 76.94,89.937 C66.91,89.937 58.777,81.804 58.777,71.774 C58.777,61.743 66.91,53.611 76.94,53.611 C86.973,53.611 95.103,61.741 95.103,71.774 L95.103,71.774 Z" id="Path"></path>
                <path d="M60.228,0.468 L0.426,0.468 L0.426,29.95 L60.228,29.95 C92.162,29.95 118.05,55.84 118.05,87.773 L118.05,206.228 C118.05,238.162 92.162,264.05 60.228,264.05 L0.426,264.05 L0.426,293.532 L60.228,293.532 C108.366,293.532 147.532,254.367 147.532,206.227 L147.532,87.772 C147.532,39.632 108.367,0.468 60.228,0.468 Z" id="Path"></path>
                <path d="M1,71.202 C0.807,71.202 0.619,71.216 0.426,71.216 L0.426,100.698 C0.617,100.696 0.807,100.684 1,100.684 C26.579,100.684 47.313,121.419 47.313,147 C47.313,172.579 26.58,193.313 1,193.313 C0.807,193.313 0.617,193.301 0.426,193.299 L0.426,222.781 C0.619,222.783 0.807,222.795 1,222.795 C42.794,222.795 76.795,188.793 76.795,147 C76.795,105.206 42.794,71.202 1,71.202 Z" id="Path"></path>
            </g>
        </g>
    </g>
</svg>