<?xml version="1.0" encoding="UTF-8"?>
<svg width="509px" height="509px" viewBox="0 0 509 509" version="1.1" xmlns="http://www.w3.org/2000/svg" xmlns:xlink="http://www.w3.org/1999/xlink">
    <!-- Generator: Sketch 57 (83077) - https://sketch.com -->
    <title>vk</title>
    <desc>Created with Sketch.</desc>
    <defs>
        <circle id="path-1" cx="254.178549" cy="254.178549" r="254.178549"></circle>
    </defs>
    <g id="Page-1" stroke="none" stroke-width="1" fill="none" fill-rule="evenodd">
        <g id="vk">
            <g id="Polygon">
                <mask id="mask-2" fill="white">
                    <use xlink:href="#path-1"></use>
                </mask>
                <use id="Mask" fill="#4D76A1" fill-rule="nonzero" xlink:href="#path-1"></use>
                <polygon fill-opacity="0.25" fill="#000000" mask="url(#mask-2)" points="414.000351 188.711807 529 310.161233 464.732687 477.323429 326.36641 524 151.847046 316.753839 290.988037 277.12209"></polygon>
            </g>
            <path d="M264.527292,365.658619 C264.527292,365.658619 270.553487,364.997097 273.630018,361.680425 C276.461876,358.635611 276.371257,352.917522 276.371257,352.917522 C276.371257,352.917522 275.981593,326.148531 288.405522,322.206584 C300.652743,318.32354 316.379752,348.078442 333.049204,359.51915 C345.654372,368.177841 355.23285,366.279363 355.23285,366.279363 L399.804035,365.658619 C399.804035,365.658619 423.120425,364.222301 412.06485,345.889982 C411.158655,344.39023 405.626336,332.328779 378.92531,307.544354 C350.978265,281.604531 354.72085,285.800212 388.385982,240.929982 C408.888637,213.603681 417.085168,196.920637 414.525168,189.775292 C412.082973,182.96977 397.003894,184.768566 397.003894,184.768566 L346.818832,185.081204 C346.818832,185.081204 343.098903,184.573735 340.33954,186.223009 C337.643611,187.840566 335.908248,191.610336 335.908248,191.610336 C335.908248,191.610336 327.965451,212.756389 317.372035,230.739823 C295.025274,268.686726 286.090195,270.689416 282.43823,268.33331 C273.942655,262.84177 276.06315,246.272 276.06315,234.500531 C276.06315,197.72715 281.640779,182.394336 265.202407,178.425204 C259.747115,177.10669 255.732673,176.236743 241.781805,176.096283 C223.875398,175.910513 208.719292,176.150655 200.137628,180.355398 C194.428602,183.151009 190.024496,189.381097 192.706832,189.739044 C196.023504,190.18308 203.535858,191.764389 207.518584,197.187965 C212.661239,204.183788 212.48,219.897204 212.48,219.897204 C212.48,219.897204 215.434195,263.186124 205.579327,268.564389 C198.814584,272.252602 189.53515,264.722124 169.61246,230.295788 C159.404177,212.661239 151.696991,193.168991 151.696991,193.168991 C151.696991,193.168991 150.210832,189.526088 147.560212,187.57777 C144.343221,185.217133 139.848496,184.464991 139.848496,184.464991 L92.16,184.777628 C92.16,184.777628 85.0010619,184.976991 82.3730973,188.08977 C80.035115,190.858195 82.1873274,196.585345 82.1873274,196.585345 C82.1873274,196.585345 119.522549,283.933451 161.796531,327.951858 C200.559009,368.309239 244.577416,365.658619 244.577416,365.658619 L264.527292,365.658619 Z" id="Path" fill="#FFFFFF"></path>
            <path d="M264.527292,365.658619 C264.527292,365.658619 270.553487,364.997097 273.630018,361.680425 C276.461876,358.635611 276.371257,352.917522 276.371257,352.917522 C276.371257,352.917522 275.981593,326.148531 288.405522,322.206584 C300.652743,318.32354 316.379752,348.078442 333.049204,359.51915 C345.654372,368.177841 355.23285,366.279363 355.23285,366.279363 L399.804035,365.658619 C399.804035,365.658619 423.120425,364.222301 412.06485,345.889982 C411.158655,344.39023 405.626336,332.328779 378.92531,307.544354 C350.978265,281.604531 354.72085,285.800212 388.385982,240.929982 C408.888637,213.603681 417.085168,196.920637 414.525168,189.775292 C412.082973,182.96977 397.003894,184.768566 397.003894,184.768566 L346.818832,185.081204 C346.818832,185.081204 343.098903,184.573735 340.33954,186.223009 C337.643611,187.840566 335.908248,191.610336 335.908248,191.610336 C335.908248,191.610336 327.965451,212.756389 317.372035,230.739823 C295.025274,268.686726 286.090195,270.689416 282.43823,268.33331 C273.942655,262.84177 276.06315,246.272 276.06315,234.500531 C276.06315,197.72715 281.640779,182.394336 265.202407,178.425204 C259.747115,177.10669 255.732673,176.236743 241.781805,176.094786 C243.645546,302.470675 244.577416,365.658619 244.577416,365.658619 L264.527292,365.658619 Z" id="Path-Copy" fill-opacity="0.1" fill="#000000"></path>
        </g>
    </g>
</svg>