<svg width="70" height="70" viewBox="0 0 70 70" fill="none" xmlns="http://www.w3.org/2000/svg">
<g clip-path="url(#clip0)">
<path d="M15.8594 33.6328C15.1048 33.6328 14.4922 34.2454 14.4922 35C14.4922 35.7546 15.1048 36.3672 15.8594 36.3672C16.614 36.3672 17.2266 35.7546 17.2266 35C17.2266 34.2454 16.614 33.6328 15.8594 33.6328Z" fill="#FE6128"/>
<path d="M67.805 27.6247C68.0763 27.2695 68.1532 26.8166 68.0272 26.4006C68.212 24.7781 67.9909 23.0782 67.3981 21.6475C66.7027 19.9668 65.2576 18.4212 63.3307 17.296C62.7555 16.9595 62.3737 16.3886 62.2834 15.7323C61.9993 13.6457 61.0396 11.6088 59.7157 10.2833C58.3907 8.95988 56.3543 8.00072 54.2731 7.7182C53.6124 7.62688 53.041 7.24556 52.7061 6.67305C51.6824 4.92027 49.9104 3.36029 48.0817 2.60246C46.2152 1.82808 44.2018 1.71593 42.3225 2.20886C41.6869 2.37549 40.9948 2.23824 40.4746 1.84464C38.8879 0.637665 36.9947 0 35 0C33.0058 0 31.1137 0.636597 29.5296 1.84036C29.0063 2.23663 28.3147 2.37549 27.6834 2.21046C25.6011 1.66252 23.2726 1.92635 21.6475 2.60193C19.9668 3.29727 18.4212 4.74243 17.296 6.66878C16.9595 7.24449 16.3886 7.62634 15.7323 7.7166C13.6452 8.00072 11.6088 8.96042 10.2833 10.2843C8.95988 11.6093 8.00072 13.6452 7.7182 15.7269C7.62688 16.3876 7.24556 16.959 6.67305 17.2939C4.7435 18.4202 3.29781 19.9657 2.60139 21.6464C1.92795 23.2753 1.73409 25.2438 2.06841 27.0404C2.18269 27.6759 2.57149 28.5646 1.8425 29.5259C0.637131 31.1131 0 33.0064 0 35C0 36.9942 0.636597 38.8863 1.83983 40.4698C2.24251 41.0012 2.37709 41.6752 2.21046 42.3118C1.69296 44.2488 2.1138 46.2408 2.87483 48.0791C3.71117 50.0994 5.09491 51.7849 6.66771 52.7019C7.24396 53.0399 7.62634 53.6114 7.7166 54.2677C8.00072 56.3548 8.95988 58.3912 10.2843 59.7167C11.6093 61.0406 13.6452 61.9993 15.7264 62.2818C16.3876 62.3731 16.959 62.7544 17.2939 63.327C18.4202 65.2565 19.9652 66.7022 21.6454 67.3981C23.0585 67.9839 25.3859 68.3946 27.6786 67.7911C28.3141 67.625 29.0052 67.7618 29.5248 68.1559C31.1121 69.3623 33.0053 70 35 70C36.9942 70 38.8863 69.3634 40.4704 68.1596C40.8437 67.8766 41.3072 67.7206 41.7756 67.7206C42.5356 67.7206 44.8705 68.7316 48.0791 67.3981C49.9093 66.6408 51.6818 65.0819 52.704 63.3307C53.0405 62.7555 53.6114 62.3737 54.2677 62.2834C56.3559 61.9993 58.3928 61.039 59.7167 59.7157C61.0401 58.3907 61.9993 56.3543 62.2818 54.2731C62.3731 53.6124 62.7544 53.041 63.327 52.7061C65.0797 51.6824 66.6397 49.9104 67.3981 48.0801C68.1751 46.2029 68.2814 44.1959 67.7911 42.3219C67.6229 41.6768 67.7564 41.0028 68.1575 40.4741C69.3629 38.8869 70 36.9936 70 35C70 33.0058 69.3634 31.1137 68.1602 29.5302C67.7586 28.9999 67.6192 28.3531 67.805 27.6247ZM65.9791 38.8212C65.311 39.7024 64.9713 40.7587 64.9868 41.8359H5.0132C5.02922 40.7593 4.68849 39.7018 4.01825 38.8169C3.17818 37.7119 2.73438 36.3918 2.73438 35C2.73438 33.6082 3.17924 32.2875 4.02039 31.1788C4.68903 30.2976 5.02922 29.2391 5.01373 28.1625H11.3765C11.3797 28.1625 11.3829 28.163 11.3856 28.163C11.3893 28.163 11.3925 28.1625 11.3963 28.1625H64.9868C64.9708 29.2397 65.3115 30.2982 65.9818 31.1826C66.8218 32.2881 67.2656 33.6082 67.2656 35C67.2656 36.3918 66.8208 37.7125 65.9791 38.8212ZM20.0309 44.5703C23.2897 49.6492 28.9523 52.7734 35 52.7734C41.0477 52.7734 46.7103 49.6476 49.9691 44.5687H56.5882C52.7831 52.9481 44.1719 58.6523 35 58.6523C25.8281 58.6523 17.2169 52.9497 13.4118 44.5703H20.0309ZM23.4093 44.5687H46.5907C43.7548 47.9904 39.5026 50.0391 35 50.0391C30.4974 50.0391 26.2452 47.9904 23.4093 44.5687ZM49.9691 25.4297C46.7103 20.3508 41.0477 17.2266 35 17.2266C28.9523 17.2266 23.2897 20.3508 20.0309 25.4297H13.4118C17.2169 17.0503 25.8281 11.3477 35 11.3477C44.1719 11.3477 52.7831 17.0503 56.5882 25.4297H49.9691ZM46.5907 25.4297H23.4093C26.2452 22.0085 30.4974 19.9609 35 19.9609C39.5026 19.9609 43.7548 22.0085 46.5907 25.4297ZM5.12802 22.6921C5.58998 21.5775 6.65543 20.4704 8.05305 19.6549C9.35509 18.8928 10.2203 17.5972 10.4275 16.0976C10.6293 14.607 11.3156 13.1202 12.2166 12.2176C13.1197 11.3156 14.6081 10.6293 16.1024 10.4259C17.5977 10.2208 18.8928 9.35455 19.6565 8.04878C20.471 6.65489 21.5775 5.58998 22.6948 5.12749C23.7447 4.69116 25.4633 4.45351 26.9907 4.85565C28.429 5.23056 29.9953 4.91814 31.1826 4.01825C32.2881 3.17818 33.6082 2.73438 35 2.73438C36.3918 2.73438 37.7125 3.17924 38.8217 4.02306C40.0073 4.92027 41.5748 5.23109 43.0157 4.85405C44.346 4.50478 45.7452 4.59343 47.0345 5.12802C48.2996 5.65247 49.63 6.82739 50.3456 8.05305C51.1072 9.35509 52.4028 10.2203 53.9024 10.4275C55.393 10.6293 56.8798 11.3156 57.7824 12.2171C58.6844 13.1197 59.3707 14.6081 59.5741 16.1029C59.7797 17.5977 60.6454 18.8928 61.9512 19.6571C63.3456 20.471 64.41 21.5781 64.872 22.6937C65.2074 23.5028 65.3724 24.4716 65.3532 25.4297H59.5597C55.5986 15.4813 45.639 8.61328 35 8.61328C24.361 8.61328 14.4014 15.4813 10.4403 25.4297H4.6463C4.62654 24.4748 4.7921 23.5049 5.12802 22.6921ZM64.872 47.0339C64.3475 48.2991 63.1726 49.6294 61.9469 50.3451C60.6449 51.1072 59.7797 52.4023 59.5725 53.9024C59.3707 55.393 58.6844 56.8798 57.7824 57.7829C56.8675 58.6977 55.4154 59.3674 53.8971 59.5741C52.4023 59.7792 51.1072 60.6454 50.3429 61.9512C49.6289 63.1742 48.2986 64.3475 47.0318 64.8725C44.5959 65.884 43.0995 64.9863 41.7756 64.9863C40.7144 64.9863 39.6645 65.3393 38.8169 65.9818C37.7119 66.8218 36.3918 67.2656 35 67.2656C33.6082 67.2656 32.2875 66.8208 31.1783 65.9775C29.99 65.0776 28.4225 64.7705 26.9849 65.1465C25.4505 65.5497 23.7234 65.2992 22.6921 64.872C21.577 64.41 20.4704 63.3446 19.6549 61.948C18.8939 60.6454 17.5988 59.7797 16.0976 59.5725C14.607 59.3707 13.1202 58.6844 12.2176 57.7829C11.3161 56.8803 10.6293 55.3919 10.4259 53.8971C10.2208 52.4033 9.35509 51.1082 8.04825 50.3413C6.97853 49.7176 6.01402 48.5117 5.40146 47.0329C5.02495 46.1234 4.80598 45.3094 4.7403 44.5703H10.4403C14.4014 54.5187 24.361 61.3867 35 61.3867C45.639 61.3867 55.5986 54.5187 59.5597 44.5703H65.3537C65.3606 45.4077 65.1988 46.244 64.872 47.0339Z" fill="#9C9C9C"/>
<path d="M54.1406 33.6328H21.3281C20.573 33.6328 19.9609 34.2448 19.9609 35C19.9609 35.7552 20.573 36.3672 21.3281 36.3672H54.1406C54.8958 36.3672 55.5078 35.7552 55.5078 35C55.5078 34.2448 54.8958 33.6328 54.1406 33.6328Z" fill="#FE6128"/>
<path fill-rule="evenodd" clip-rule="evenodd" d="M46.6085 44.5C43.8577 47.8575 39.6789 50 34.9998 50C30.3206 50 26.1419 47.8575 23.391 44.5H19.708C22.8851 49.6033 28.5458 53 34.9998 53C41.4538 53 47.1144 49.6033 50.2915 44.5H46.6085ZM23.391 25.5C26.1419 22.1425 30.3206 20 34.9998 20C39.6789 20 43.8577 22.1425 46.6085 25.5H50.2915C47.1144 20.3967 41.4538 17 34.9998 17C28.5458 17 22.8851 20.3967 19.708 25.5H23.391Z" fill="#F25A23"/>
</g>
<defs>
<clipPath id="clip0">
<rect width="70" height="70" fill="white"/>
</clipPath>
</defs>
</svg>
