<svg width="126" height="31" viewBox="0 0 126 31" fill="none" xmlns="http://www.w3.org/2000/svg">
<path fill-rule="evenodd" clip-rule="evenodd" d="M83.6526 18.5231C83.6526 19.3044 84.1678 19.7927 84.9405 19.7927C85.3269 19.7927 85.8099 19.7276 86.2607 19.6625L86.8399 23.96C85.6807 24.2204 84.5215 24.3506 83.5234 24.3506C80.1107 24.3506 77.9851 22.2998 77.9851 19.1095V1.04092H83.6522V18.5231H83.6526Z" fill="#F25A23"/>
<path fill-rule="evenodd" clip-rule="evenodd" d="M91.4125 0.325134C93.3123 0.325134 94.6647 1.69199 94.6647 3.61307C94.6647 5.50118 93.3123 6.86844 91.4125 6.86844C89.5446 6.86844 88.1926 5.50118 88.1926 3.61307C88.1926 1.69199 89.5446 0.325134 91.4125 0.325134ZM88.5786 7.84506H94.2457V23.9596H88.5786V7.84506Z" fill="#F25A23"/>
<path fill-rule="evenodd" clip-rule="evenodd" d="M99.1722 12.1747H96.4993V7.84506H99.1722V6.34718C99.1722 2.92903 101.587 0.650269 105.161 0.650269C106.417 0.650269 107.705 0.813037 109.122 1.17113L108.414 5.40312C107.737 5.27291 107.094 5.2078 106.546 5.2078C105.515 5.2078 104.839 5.85887 104.839 6.93315V7.84465H108.124V12.1743H104.839V23.9596H99.1722V12.1747Z" fill="#F25A23"/>
<path fill-rule="evenodd" clip-rule="evenodd" d="M117.397 7.45441C122.163 7.45441 125.479 10.8074 125.479 15.658C125.479 16.2443 125.447 16.8299 125.383 17.3837H114.467C114.886 19.0765 116.496 20.1508 118.621 20.1508C119.909 20.1508 121.422 19.695 123.032 18.8486L124.707 22.69C122.292 23.8294 119.909 24.3502 117.913 24.3502C112.503 24.3502 108.8 20.8666 108.8 15.9184C108.8 10.9377 112.342 7.45441 117.397 7.45441ZM114.467 14.0303H120.038C119.845 12.5975 118.814 11.6538 117.397 11.6538C115.916 11.6538 114.789 12.5979 114.467 14.0303Z" fill="#F25A23"/>
<path fill-rule="evenodd" clip-rule="evenodd" d="M7.97329 13.6722C8.81046 13.6722 9.77644 13.7694 10.7102 13.9326V13.8024C10.7102 12.5654 9.55105 11.6543 7.94109 11.6543C6.36333 11.6543 4.59237 12.0775 2.78921 12.8262L1.37245 8.88677C3.94839 7.91057 6.36333 7.45441 8.64987 7.45441C13.029 7.45441 15.8947 10.0583 15.8947 13.9326V19.2393C15.8947 19.7276 16.2167 20.0531 16.6997 20.0531C16.9573 20.0531 17.2149 20.0206 17.4403 19.9884L17.7944 24.0902C16.9895 24.2526 16.0879 24.3506 15.1219 24.3506C13.5442 24.3506 12.2884 23.667 11.58 22.4951C10.0988 23.6996 8.16688 24.3506 6.42813 24.3506C2.98281 24.3506 0.567871 22.2021 0.567871 19.1095C0.567469 15.658 3.3362 13.6722 7.97329 13.6722ZM7.94109 20.4112C9.55105 20.4112 10.7102 19.2714 10.7102 17.7088V17.1229C10.0662 16.9931 9.39005 16.895 8.68127 16.895C7.00691 16.895 5.87994 17.6112 5.87994 18.7506C5.88034 19.695 6.74972 20.4112 7.94109 20.4112Z" fill="#31D2F7"/>
<path fill-rule="evenodd" clip-rule="evenodd" d="M28.6134 23.9596H23.3971L16.9573 7.84506H22.8819L26.0053 17.5135L29.1286 7.84506H35.0532L28.6134 23.9596Z" fill="#31D2F7"/>
<path fill-rule="evenodd" clip-rule="evenodd" d="M43.8105 7.84506H47.61V12.1747H43.8105V18.0674C43.8105 19.142 44.4867 19.7927 45.5171 19.7927C46.0645 19.7927 46.7085 19.7276 47.3847 19.5974L48.093 23.8294C46.6763 24.1875 45.3883 24.3502 44.1325 24.3502C40.5584 24.3502 38.1435 22.0715 38.1435 18.6533V12.1747H35.4709V7.84506H38.1435V3.15732H43.8105V7.84506Z" fill="#31D2F7"/>
<path fill-rule="evenodd" clip-rule="evenodd" d="M75.2177 13.0382C75.2177 6.21331 69.745 0.680389 62.9945 0.680389C56.2439 0.680389 50.7712 6.21331 50.7712 13.0382C50.7712 16.4527 52.1433 19.5408 54.3574 21.7777L54.3514 21.7838L63.0625 30.4736L67.2359 26.1973L58.6158 17.5982L58.6218 17.5921C57.4461 16.438 56.7132 14.8258 56.7132 13.0382C56.7132 9.53135 59.5254 6.68819 62.9941 6.68819C66.4627 6.68819 69.2749 9.53135 69.2749 13.0382C69.2749 14.8258 68.5416 16.438 67.3659 17.5921L67.3711 17.5974L65.24 19.7813L69.4689 23.9999L71.6367 21.7789L71.6331 21.7752C73.8464 19.5388 75.2177 16.4515 75.2177 13.0382Z" fill="#31D1F6"/>
</svg>
