<svg width="70" height="70" viewBox="0 0 70 70" fill="none" xmlns="http://www.w3.org/2000/svg">
<g clip-path="url(#clip0)">
<path d="M63.7645 12.0874C54.1334 9.44848 44.4456 5.33941 35.7486 0.204535C35.2866 -0.0682189 34.7133 -0.0682189 34.2515 0.204535C25.3035 5.48693 16.1393 9.3737 6.23472 12.0874C5.59488 12.2626 5.15137 12.8442 5.15137 13.5077V28.553C5.15137 44.0463 12.2989 54.3018 18.2951 60.1768C24.7504 66.5021 32.2699 70 35 70C37.7299 70 45.2494 66.5021 51.7047 60.1768C57.7008 54.302 64.8479 44.0465 64.8479 28.553V13.5075C64.8479 12.8442 64.4043 12.2626 63.7645 12.0874ZM61.9029 28.5528C61.9029 43.0235 55.2364 52.5931 49.6435 58.0731C43.2955 64.2931 36.5084 67.0548 35 67.0548C33.4916 67.0548 26.7041 64.2931 20.356 58.0731C14.7632 52.593 8.09642 43.0235 8.09642 28.5528V14.6253C17.568 11.9361 26.3888 8.18301 35.0003 3.17871C43.3967 8.05026 52.6576 11.9899 61.9029 14.6248V28.5528Z" fill="#9C9C9C"/>
<path d="M21.9483 14.4606C21.6502 13.7038 20.7953 13.3321 20.0384 13.6303C17.408 14.6667 14.7081 15.6208 12.0137 16.466C11.3997 16.6587 10.9819 17.2275 10.9819 17.8709V23.5571C10.9819 24.3703 11.6413 25.0296 12.4544 25.0296C13.2675 25.0296 13.9269 24.3703 13.9269 23.5571V18.947C16.3439 18.165 18.7583 17.2999 21.118 16.3701C21.8747 16.0722 22.2464 15.2173 21.9483 14.4606Z" fill="#9C9C9C"/>
<path d="M24.7454 14.7399C24.9429 14.7399 25.1435 14.7001 25.3358 14.6162L25.3629 14.6044C26.1079 14.2779 26.4434 13.4107 26.1169 12.666C25.7902 11.921 24.918 11.584 24.1739 11.9102L24.1501 11.9205C23.4047 12.246 23.0681 13.1125 23.3936 13.8576C23.6352 14.4108 24.1773 14.7399 24.7454 14.7399Z" fill="#FE6128"/>
<path d="M52.5437 47.48C51.8633 47.0353 50.9508 47.2266 50.5055 47.9073C49.2921 49.7645 47.8686 51.5429 46.2739 53.1927C44.9625 54.5492 43.5415 55.8136 42.0503 56.9504C41.4037 57.4434 41.2793 58.3673 41.7722 59.0142C42.0622 59.3941 42.5006 59.594 42.9442 59.594C43.2556 59.594 43.5694 59.4957 43.836 59.2922C45.4445 58.0657 46.9771 56.7022 48.391 55.2396C50.1152 53.4563 51.656 51.5313 52.971 49.5181C53.416 48.8372 53.2244 47.9248 52.5437 47.48Z" fill="#9C9C9C"/>
<path d="M38.6306 59.2597L38.5461 59.3094C37.8424 59.717 37.6019 60.6177 38.0093 61.3214C38.2824 61.7931 38.7766 62.0564 39.2851 62.0564C39.5353 62.0564 39.7893 61.9925 40.0213 61.8579L40.1188 61.8006C40.8205 61.3896 41.0562 60.4877 40.6453 59.7859C40.234 59.0844 39.332 58.8491 38.6306 59.2597Z" fill="#FE6128"/>
<path d="M24.9629 31.9947C24.0587 31.0905 22.8563 30.5928 21.5774 30.5928C20.2986 30.5928 19.096 31.0906 18.1915 31.9947C16.3248 33.8617 16.3248 36.8996 18.1915 38.7665L26.8862 47.461C27.7905 48.365 28.9929 48.8628 30.2719 48.8628C31.5509 48.8628 32.7534 48.365 33.6577 47.4607L51.8086 29.3097C53.6751 27.4423 53.6751 24.4048 51.8084 22.5384C50.9041 21.6342 49.7017 21.1365 48.4225 21.1365C47.1435 21.1365 45.9411 21.6343 45.0367 22.5384L30.2718 37.3034L24.9629 31.9947ZM47.1192 24.6209C47.4671 24.273 47.9302 24.0815 48.4227 24.0815C48.9154 24.0815 49.378 24.273 49.7263 24.6209C50.4447 25.3394 50.4447 26.5089 49.726 27.2276L31.5754 45.3784C31.2274 45.7263 30.7644 45.9179 30.2719 45.9179C29.7795 45.9179 29.3164 45.7263 28.9683 45.3784L20.2738 36.6842C19.5551 35.9654 19.5551 34.7959 20.2736 34.0775C20.6216 33.7295 21.0847 33.5377 21.5773 33.5377C22.0699 33.5377 22.5327 33.7293 22.8806 34.0772L29.2305 40.4272C29.5068 40.7033 29.8812 40.8585 30.2718 40.8585C30.6624 40.8585 31.0367 40.7034 31.3127 40.4272L47.1192 24.6209Z" fill="#FE6128"/>
</g>
<defs>
<clipPath id="clip0">
<rect width="70" height="70" fill="white"/>
</clipPath>
</defs>
</svg>
