<svg width="70" height="70" fill="none" xmlns="http://www.w3.org/2000/svg"><g clip-path="url(#clip0)"><path d="M63.764 12.087C54.134 9.448 44.447 5.34 35.75.205a1.472 1.472 0 00-1.498 0C25.305 5.487 16.14 9.374 6.236 12.087a1.472 1.472 0 00-1.084 1.42v15.046c0 15.493 7.148 25.749 13.144 31.624C24.75 66.502 32.27 70 35 70c2.73 0 10.25-3.498 16.705-9.823 5.996-5.875 13.143-16.13 13.143-31.624V13.507c0-.663-.444-1.244-1.084-1.42zm-1.861 16.466c0 14.47-6.667 24.04-12.26 29.52-6.348 6.22-13.135 8.982-14.643 8.982-1.508 0-8.296-2.762-14.644-8.982-5.593-5.48-12.26-15.05-12.26-29.52V14.625C17.568 11.936 26.39 8.183 35 3.18c8.397 4.871 17.658 8.81 26.903 11.446v13.928z" fill="#9C9C9C"/><path d="M21.948 14.46a1.472 1.472 0 00-1.91-.83c-2.63 1.037-5.33 1.99-8.024 2.836a1.473 1.473 0 00-1.032 1.405v5.686a1.473 1.473 0 002.945 0v-4.61a122.774 122.774 0 007.191-2.577 1.472 1.472 0 00.83-1.91z" fill="#9C9C9C"/><path d="M24.745 14.74c.198 0 .398-.04.59-.124l.028-.012a1.47 1.47 0 00.754-1.938 1.476 1.476 0 00-1.943-.756l-.024.01a1.469 1.469 0 00-.756 1.938c.241.553.783.882 1.351.882z" fill="#FE6128"/><path d="M52.544 47.48a1.473 1.473 0 00-2.038.427 35.84 35.84 0 01-4.232 5.286 37.61 37.61 0 01-4.224 3.757 1.473 1.473 0 001.786 2.342 40.583 40.583 0 004.555-4.052 38.743 38.743 0 004.58-5.722 1.472 1.472 0 00-.427-2.038z" fill="#9C9C9C"/><path d="M38.63 59.26l-.084.05a1.473 1.473 0 001.475 2.548l.098-.057a1.473 1.473 0 10-1.488-2.541zM24.963 31.995a4.756 4.756 0 00-3.386-1.402 4.758 4.758 0 00-3.386 1.402 4.794 4.794 0 000 6.771l8.695 8.695a4.757 4.757 0 003.386 1.402 4.757 4.757 0 003.386-1.402l18.15-18.151a4.794 4.794 0 000-6.772 4.757 4.757 0 00-3.386-1.401 4.758 4.758 0 00-3.385 1.401L30.272 37.303l-5.31-5.308zm22.156-7.374c.348-.348.811-.54 1.304-.54a1.846 1.846 0 011.303 3.146l-18.15 18.151c-.349.348-.812.54-1.304.54s-.956-.192-1.304-.54l-8.694-8.694a1.845 1.845 0 011.303-3.146c.493 0 .956.191 1.304.54l6.35 6.35a1.473 1.473 0 002.082 0L47.119 24.62z" fill="#FE6128"/></g><defs><clipPath id="clip0"><path fill="#fff" d="M0 0h70v70H0z"/></clipPath></defs></svg>