<svg width="70" height="70" fill="none" xmlns="http://www.w3.org/2000/svg"><g clip-path="url(#clip0)"><path d="M15.86 33.633a1.368 1.368 0 100 2.735 1.368 1.368 0 000-2.735z" fill="#FE6128"/><path d="M67.805 27.625a1.36 1.36 0 00.222-1.224c.185-1.623-.036-3.323-.629-4.753-.695-1.681-2.14-3.227-4.067-4.352a2.142 2.142 0 01-1.048-1.564c-.284-2.086-1.243-4.123-2.567-5.449-1.325-1.323-3.362-2.282-5.443-2.565a2.144 2.144 0 01-1.567-1.045c-1.024-1.753-2.796-3.313-4.624-4.07a9.016 9.016 0 00-5.76-.394 2.175 2.175 0 01-1.847-.364A8.97 8.97 0 0035 0a8.97 8.97 0 00-5.47 1.84 2.175 2.175 0 01-1.847.37c-2.082-.547-4.41-.284-6.035.392-1.681.695-3.227 2.14-4.352 4.067a2.14 2.14 0 01-1.564 1.048C13.645 8 11.61 8.96 10.283 10.284c-1.323 1.325-2.282 3.361-2.565 5.443a2.144 2.144 0 01-1.045 1.567c-1.93 1.126-3.375 2.672-4.072 4.352-.673 1.63-.867 3.598-.533 5.394.115.636.503 1.525-.226 2.486A8.98 8.98 0 000 35a8.97 8.97 0 001.84 5.47c.403.531.537 1.205.37 1.842-.517 1.937-.096 3.929.665 5.767.836 2.02 2.22 3.706 3.793 4.623.576.338.958.91 1.049 1.566.284 2.087 1.243 4.123 2.567 5.449 1.325 1.324 3.361 2.282 5.442 2.565a2.144 2.144 0 011.568 1.045c1.126 1.93 2.671 3.375 4.351 4.071 1.413.586 3.74.997 6.034.393a2.17 2.17 0 011.846.365A8.977 8.977 0 0035 70a8.97 8.97 0 005.47-1.84 2.173 2.173 0 011.306-.44c.76 0 3.094 1.012 6.303-.322 1.83-.757 3.603-2.316 4.625-4.067a2.142 2.142 0 011.564-1.048c2.088-.284 4.125-1.244 5.449-2.567 1.323-1.325 2.282-3.362 2.565-5.443a2.144 2.144 0 011.045-1.567c1.753-1.024 3.313-2.796 4.071-4.626a9.02 9.02 0 00.393-5.758 2.145 2.145 0 01.367-1.848A8.98 8.98 0 0070 35a8.97 8.97 0 00-1.84-5.47c-.401-.53-.54-1.177-.355-1.905zM65.979 38.82a4.858 4.858 0 00-.992 3.015H5.013a4.865 4.865 0 00-.995-3.02A6.256 6.256 0 012.734 35c0-1.392.445-2.712 1.286-3.821a4.862 4.862 0 00.994-3.016h59.972a4.866 4.866 0 00.996 3.02A6.26 6.26 0 0167.266 35a6.269 6.269 0 01-1.287 3.821zm-45.948 5.75c3.259 5.078 8.921 8.202 14.969 8.202s11.71-3.125 14.97-8.204h6.618C52.783 52.949 44.172 58.652 35 58.652S17.217 52.95 13.412 44.57h6.619zm3.378-.002h23.182c-2.836 3.421-7.088 5.47-11.591 5.47-4.503 0-8.755-2.049-11.59-5.47zm26.56-19.14c-3.259-5.076-8.921-8.2-14.969-8.2S23.29 20.35 20.03 25.43h-6.618C17.217 17.05 25.828 11.348 35 11.348S52.783 17.05 56.588 25.43H49.97zm-3.378 0H23.409c2.836-3.42 7.088-5.468 11.591-5.468 4.503 0 8.755 2.048 11.59 5.469zM5.128 22.693c.462-1.114 1.527-2.222 2.925-3.037a4.867 4.867 0 002.374-3.557c.202-1.491.889-2.978 1.79-3.88.903-.902 2.391-1.589 3.885-1.792a4.859 4.859 0 003.555-2.377c.814-1.394 1.92-2.459 3.038-2.922 1.05-.436 2.768-.673 4.296-.271a4.932 4.932 0 004.192-.838A6.259 6.259 0 0135 2.734a6.26 6.26 0 013.822 1.29 4.932 4.932 0 004.194.83 6.28 6.28 0 014.019.274c1.265.524 2.595 1.7 3.31 2.925a4.865 4.865 0 003.557 2.374c1.491.202 2.978.889 3.88 1.79.902.903 1.589 2.391 1.792 3.886a4.862 4.862 0 002.377 3.554c1.395.814 2.459 1.921 2.921 3.037.335.809.5 1.778.481 2.736H59.56C55.599 15.48 45.639 8.613 35 8.613S14.401 15.481 10.44 25.43H4.646c-.02-.955.146-1.925.482-2.738zm59.744 24.342c-.525 1.265-1.7 2.595-2.925 3.311a4.866 4.866 0 00-2.375 3.557c-.201 1.491-.888 2.978-1.79 3.88-.914.916-2.367 1.585-3.885 1.792a4.861 4.861 0 00-3.554 2.377c-.714 1.223-2.044 2.396-3.311 2.922-2.436 1.011-3.932.113-5.256.113a4.925 4.925 0 00-2.96.996A6.257 6.257 0 0135 67.266a6.263 6.263 0 01-3.822-1.288 4.93 4.93 0 00-4.193-.831c-1.534.403-3.262.152-4.293-.275-1.115-.462-2.222-1.527-3.037-2.924a4.861 4.861 0 00-3.557-2.376c-1.491-.201-2.978-.888-3.88-1.79-.902-.902-1.589-2.39-1.792-3.885a4.868 4.868 0 00-2.378-3.556c-1.07-.623-2.034-1.83-2.647-3.308-.376-.91-.595-1.724-.66-2.463h5.7C14.4 54.52 24.36 61.387 35 61.387c10.639 0 20.599-6.868 24.56-16.817h5.794a6.303 6.303 0 01-.482 2.464z" fill="#9C9C9C"/><path d="M54.14 33.633H21.329a1.367 1.367 0 100 2.734h32.813a1.367 1.367 0 100-2.734z" fill="#FE6128"/><path fill-rule="evenodd" clip-rule="evenodd" d="M46.608 44.5A14.97 14.97 0 0135 50a14.97 14.97 0 01-11.609-5.5h-3.683C22.885 49.603 28.546 53 35 53c6.454 0 12.114-3.397 15.291-8.5H46.61zm-23.217-19A14.97 14.97 0 0135 20a14.97 14.97 0 0111.608 5.5h3.684C47.114 20.397 41.453 17 35 17c-6.454 0-12.115 3.397-15.292 8.5h3.683z" fill="#F25A23"/></g><defs><clipPath id="clip0"><path fill="#fff" d="M0 0h70v70H0z"/></clipPath></defs></svg>