<svg width="70" height="70" fill="none" xmlns="http://www.w3.org/2000/svg"><g clip-path="url(#clip0)"><path d="M12.312 54.134c-.98 0-1.922.244-2.758.704A32.325 32.325 0 012.734 35C2.734 17.208 17.208 2.734 35 2.734c2.163 0 4.325.216 6.426.64a1.367 1.367 0 00.541-2.68A35.26 35.26 0 0035 0c-9.349 0-18.138 3.64-24.749 10.251C3.641 16.861 0 25.651 0 35c0 7.864 2.67 15.538 7.532 21.69a5.702 5.702 0 00-.963 3.186c0 1.534.598 2.976 1.683 4.06a5.703 5.703 0 004.06 1.682 5.705 5.705 0 004.06-1.682 5.704 5.704 0 001.682-4.06 5.704 5.704 0 00-1.682-4.06 5.705 5.705 0 00-4.06-1.682zm2.126 7.868a2.987 2.987 0 01-2.126.882 2.988 2.988 0 01-2.127-.882 2.988 2.988 0 01-.881-2.126c0-.804.313-1.559.881-2.127a2.986 2.986 0 012.127-.88 2.99 2.99 0 012.126.88c.569.568.881 1.323.881 2.127 0 .803-.313 1.558-.88 2.127zm48.029-48.694a5.752 5.752 0 00-.718-7.244 5.707 5.707 0 00-4.06-1.682 5.707 5.707 0 00-4.06 1.682 5.704 5.704 0 00-1.683 4.06c0 1.534.598 2.976 1.682 4.06a5.704 5.704 0 004.06 1.682c.98 0 1.923-.244 2.758-.704A32.325 32.325 0 0167.267 35c0 17.791-14.474 32.266-32.266 32.266-2.141 0-4.283-.211-6.364-.628a1.368 1.368 0 00-.537 2.681c2.258.452 4.58.68 6.901.68 9.349 0 18.138-3.64 24.749-10.25 6.609-6.61 10.25-15.4 10.25-24.75 0-7.864-2.67-15.539-7.533-21.691zm-6.905-1.057a2.988 2.988 0 01-.881-2.127c0-.803.313-1.558.881-2.127a2.987 2.987 0 012.127-.88 2.99 2.99 0 012.127.88 3.012 3.012 0 010 4.254 2.991 2.991 0 01-2.127.88 2.988 2.988 0 01-2.127-.88z" fill="#9C9C9C"/><path d="M29.358 58.516c0 .755.613 1.367 1.368 1.367h8.548c.755 0 1.367-.612 1.367-1.367v-2.65a21.412 21.412 0 005.132-2.127l1.871 1.87a1.367 1.367 0 001.934 0l6.042-6.046c.534-.534.534-1.4 0-1.934l-1.87-1.869a21.41 21.41 0 002.128-5.131h2.64c.755 0 1.367-.612 1.367-1.367v-8.549c0-.755-.612-1.367-1.367-1.367h-2.641a21.408 21.408 0 00-2.126-5.13l1.859-1.86a1.369 1.369 0 000-1.934l-6.048-6.043a1.367 1.367 0 00-1.933.001l-1.856 1.857a21.408 21.408 0 00-5.132-2.127v-2.626c0-.755-.612-1.367-1.367-1.367h-8.548c-.755 0-1.368.612-1.368 1.367v2.627a21.388 21.388 0 00-5.13 2.126L22.37 14.38a1.368 1.368 0 00-1.933 0l-6.047 6.042a1.365 1.365 0 000 1.934l1.858 1.86a21.41 21.41 0 00-2.126 5.13h-2.636c-.755 0-1.367.612-1.367 1.367l-.005 8.548a1.366 1.366 0 001.367 1.368h2.64a21.413 21.413 0 002.127 5.131l-1.869 1.87a1.367 1.367 0 000 1.933l6.042 6.046a1.367 1.367 0 001.934 0l1.871-1.87a21.43 21.43 0 005.131 2.126v2.65zm-4.595-7.653a1.368 1.368 0 00-1.709.182l-1.664 1.664-4.11-4.112 1.663-1.664a1.367 1.367 0 00.182-1.709 18.714 18.714 0 01-2.59-6.25 1.367 1.367 0 00-1.337-1.08H12.85l.003-5.814h2.345c.645 0 1.201-.45 1.337-1.08a18.716 18.716 0 012.59-6.25 1.367 1.367 0 00-.182-1.708l-1.652-1.652 4.113-4.11 1.65 1.651a1.37 1.37 0 001.71.182 18.705 18.705 0 016.249-2.59 1.368 1.368 0 001.08-1.336v-2.335h5.814v2.334c0 .645.45 1.202 1.08 1.337a18.722 18.722 0 016.25 2.59c.54.35 1.252.274 1.708-.182l1.651-1.651 4.113 4.11-1.652 1.652a1.367 1.367 0 00-.182 1.709 18.726 18.726 0 012.59 6.25c.135.63.692 1.08 1.336 1.08h2.35v5.814H54.8c-.644 0-1.2.45-1.336 1.08a18.71 18.71 0 01-2.59 6.249 1.368 1.368 0 00.182 1.709l1.663 1.663-4.11 4.113-1.665-1.664a1.367 1.367 0 00-1.709-.182 18.727 18.727 0 01-6.25 2.59 1.366 1.366 0 00-1.079 1.336v2.36h-5.814v-2.36c0-.644-.45-1.2-1.08-1.336a18.716 18.716 0 01-6.25-2.59z" fill="#FE6128"/><path d="M46.297 35c0-6.23-5.067-11.297-11.296-11.297-6.23 0-11.297 5.068-11.297 11.297 0 6.23 5.067 11.297 11.297 11.297 6.229 0 11.297-5.068 11.297-11.297zm-19.859 0c0-4.721 3.84-8.563 8.563-8.563 4.721 0 8.562 3.842 8.562 8.563s-3.84 8.563-8.563 8.563c-4.721 0-8.562-3.841-8.562-8.563zm21.15-29.83c.36 0 .713-.146.967-.4.254-.256.4-.608.4-.968 0-.358-.145-.71-.4-.967a1.377 1.377 0 00-.967-.4c-.36 0-.712.146-.966.4a1.379 1.379 0 00-.4.967c0 .361.145.712.4.968.255.254.605.4.966.4zM22.471 64.854c-.36 0-.712.146-.966.4a1.378 1.378 0 00-.401.967c0 .361.146.712.4.967.255.254.608.4.967.4.36 0 .713-.146.967-.4.254-.255.4-.608.4-.967 0-.36-.146-.712-.4-.967a1.378 1.378 0 00-.967-.4z" fill="#FE6128"/></g><defs><clipPath id="clip0"><path fill="#fff" d="M0 0h70v70H0z"/></clipPath></defs></svg>