<?xml version="1.0" encoding="UTF-8"?>
<svg width="234px" height="79px" viewBox="0 0 234 79" version="1.1" xmlns="http://www.w3.org/2000/svg" xmlns:xlink="http://www.w3.org/1999/xlink">
    <!-- Generator: Sketch 57 (83077) - https://sketch.com -->
    <title>logo</title>
    <desc>Created with Sketch.</desc>
    <g id="Page-1" stroke="none" stroke-width="1" fill="none" fill-rule="evenodd">
        <g id="logo" transform="translate(-2.000000, 0.000000)">
            <path d="M2.90909091,66.1495363 C2.90909091,68.1777196 3.61219445,69.8543511 4.99135909,71.1794308 C6.37052374,72.5045106 8.15532504,73.1535293 10.345763,73.1535293 C12.2657765,73.1535293 14.0776203,72.6126804 15.8353791,71.5580251 L13.942408,68.3670167 C12.8877527,69.0430778 11.9142247,69.3675871 11.0218241,69.3675871 C9.10181058,69.3675871 7.77673082,68.0695498 7.77673082,66.1495363 C7.77673082,64.2295227 9.10181058,62.904443 11.0218241,62.904443 C11.9142247,62.904443 12.8877527,63.2289523 13.942408,63.9050134 L15.8353791,60.7410475 C14.1046627,59.6593497 12.2657765,59.1185008 10.345763,59.1185008 C8.15532504,59.1185008 6.37052374,59.7675195 4.99135909,61.0925992 C3.61219445,62.417679 2.90909091,64.0943105 2.90909091,66.1495363 L2.90909091,66.1495363 Z M20.0269579,63.0396552 L20.0269579,72.8290199 L24.7864281,72.8290199 L24.7864281,63.0396552 L28.3830731,63.0396552 L28.3830731,59.4430102 L16.4032704,59.4430102 L16.4032704,63.0396552 L20.0269579,63.0396552 Z M34.1701561,72.6397228 L33.9267741,73.2346566 C33.4129677,74.4515666 32.763949,74.9924154 31.7092937,74.9924154 C31.357742,74.9924154 30.9521053,74.9383306 30.4923837,74.8301608 L29.89745,78.5079332 C30.7357657,78.6972303 31.4929542,78.7783576 32.1960577,78.7783576 C34.954387,78.7783576 36.9555279,77.1287685 38.2265227,73.8566328 L43.9324784,59.4430102 L38.9566687,59.4430102 L36.3335516,67.474616 L33.7104346,59.4430102 L28.7346249,59.4430102 L34.1701561,72.6397228 Z M44.1217755,77.155811 L48.475609,77.155811 L48.475609,72.8290199 L55.6688991,72.8290199 L55.6688991,77.155811 L60.0227326,77.155811 L60.0227326,69.2594173 L58.2920161,69.2594173 L58.2920161,59.4430102 L46.3122135,59.4430102 L46.3122135,64.2836076 C46.3122135,66.3117909 45.8795344,67.96138 44.9871337,69.2594173 L44.1217755,69.2594173 L44.1217755,77.155811 Z M49.6654765,69.2594173 C50.2063254,68.0154649 50.4767498,66.501088 50.4767498,64.6892443 L50.4767498,63.0396552 L54.1274798,63.0396552 L54.1274798,69.2594173 L49.6654765,69.2594173 Z M66.4317918,72.8290199 L71.4616863,65.7979845 L71.4616863,72.8290199 L75.8425623,72.8290199 L75.8425623,59.4430102 L71.380559,59.4430102 L66.323622,66.4740456 L66.323622,59.4430102 L61.9427461,59.4430102 L61.9427461,72.8290199 L66.4317918,72.8290199 Z M82.7383855,72.8290199 L85.2533328,68.8808231 L86.4161579,68.8808231 L86.4161579,72.8290199 L90.7699913,72.8290199 L90.7699913,59.4430102 L83.7119135,59.4430102 C82.1704942,59.4430102 80.9265417,59.8756893 79.9800562,60.7410475 C79.0335707,61.6064057 78.5738491,62.7421883 78.5738491,64.121353 C78.5738491,65.9331967 79.5744195,67.4475736 81.061754,68.0965922 L77.8707456,72.8290199 L82.7383855,72.8290199 Z M83.0628948,64.1754379 C83.0628948,63.391207 83.6578286,62.8503581 84.5502292,62.8503581 L86.4161579,62.8503581 L86.4161579,65.5005176 L84.5502292,65.5005176 C83.6578286,65.5005176 83.0628948,64.9596687 83.0628948,64.1754379 L83.0628948,64.1754379 Z M99.4235734,66.1495363 C99.4235734,68.1777196 100.126677,69.8543511 101.505842,71.1794308 C102.885006,72.5045106 104.669808,73.1535293 106.860245,73.1535293 C108.780259,73.1535293 110.592103,72.6126804 112.349862,71.5580251 L110.456891,68.3670167 C109.402235,69.0430778 108.428707,69.3675871 107.536307,69.3675871 C105.616293,69.3675871 104.291213,68.0695498 104.291213,66.1495363 C104.291213,64.2295227 105.616293,62.904443 107.536307,62.904443 C108.428707,62.904443 109.402235,63.2289523 110.456891,63.9050134 L112.349862,60.7410475 C110.619145,59.6593497 108.780259,59.1185008 106.860245,59.1185008 C104.669808,59.1185008 102.885006,59.7675195 101.505842,61.0925992 C100.126677,62.417679 99.4235734,64.0943105 99.4235734,66.1495363 L99.4235734,66.1495363 Z M116.54144,63.0396552 L116.54144,72.8290199 L121.300911,72.8290199 L121.300911,63.0396552 L124.897556,63.0396552 L124.897556,59.4430102 L112.917753,59.4430102 L112.917753,63.0396552 L116.54144,63.0396552 Z M126.087423,68.7996958 C126.087423,70.0706906 126.547145,71.125346 127.466588,71.9366193 C128.386031,72.7478926 129.575898,73.1535293 131.009148,73.1535293 C132.496482,73.1535293 134.119029,72.5856379 135.335939,71.6121099 C135.957915,72.5856379 136.985528,73.1535293 138.310608,73.1535293 C139.040754,73.1535293 139.797942,73.0724019 140.555131,72.9371897 L140.257664,69.5298418 C140.014282,69.5568842 139.797942,69.5839266 139.635688,69.5839266 C139.230051,69.5839266 138.959626,69.3135022 138.959626,68.9078655 L138.959626,64.4999472 C138.959626,62.904443 138.391735,61.6064057 137.282995,60.6058353 C136.174255,59.6052648 134.713963,59.1185008 132.875077,59.1185008 C130.928021,59.1185008 128.899837,59.5241375 126.763484,60.3083684 L127.953352,63.5805041 C129.548856,62.9314854 131.009148,62.6069761 132.280143,62.6069761 C133.605223,62.6069761 134.605793,63.3371221 134.605793,64.3917774 L134.605793,64.4999472 C133.767477,64.364735 133.010289,64.2836076 132.307185,64.2836076 C128.386031,64.2836076 126.087423,65.9602392 126.087423,68.7996958 L126.087423,68.7996958 Z M130.549426,68.5022289 C130.549426,67.5557434 131.495912,66.9608096 132.902119,66.9608096 C133.415925,66.9608096 133.983817,67.0148945 134.605793,67.1501067 L134.605793,67.6368707 C134.605793,68.934908 133.605223,69.8813935 132.280143,69.8813935 C131.279572,69.8813935 130.549426,69.2864598 130.549426,68.5022289 L130.549426,68.5022289 Z M146.720808,72.8290199 L151.750702,65.7979845 L151.750702,72.8290199 L156.131578,72.8290199 L156.131578,59.4430102 L151.669575,59.4430102 L146.612638,66.4740456 L146.612638,59.4430102 L142.231762,59.4430102 L142.231762,72.8290199 L146.720808,72.8290199 Z M144.341073,53.8181818 C144.449243,56.8198931 146.396299,58.6587793 149.18167,58.6587793 C151.967042,58.6587793 153.914098,56.8198931 154.022268,53.8181818 L151.020556,53.8181818 C150.939429,54.8187522 150.236326,55.4677709 149.18167,55.4677709 C148.127015,55.4677709 147.423911,54.8187522 147.342784,53.8181818 L144.341073,53.8181818 Z M157.781167,72.9912746 C158.403144,73.0994444 159.106247,73.1535293 159.863436,73.1535293 C161.404855,73.1535293 162.648807,72.6667653 163.595293,71.7202797 C164.568821,70.7737942 165.055585,69.5298418 165.055585,67.9884225 L165.055585,63.0396552 L168.706315,63.0396552 L168.706315,72.8290199 L173.276488,72.8290199 L173.276488,59.4430102 L160.485412,59.4430102 L160.485412,67.6098282 C160.485412,68.7185684 159.971605,69.3675871 159.079205,69.3675871 C158.835823,69.3675871 158.538356,69.3405447 158.186804,69.2864598 L157.781167,72.9912746 Z M180.577948,72.8290199 L185.607842,65.7979845 L185.607842,72.8290199 L189.988718,72.8290199 L189.988718,59.4430102 L185.526715,59.4430102 L180.469778,66.4740456 L180.469778,59.4430102 L176.088902,59.4430102 L176.088902,72.8290199 L180.577948,72.8290199 Z M197.560603,72.8290199 L197.560603,67.8802527 L201.941478,67.8802527 L201.941478,72.8290199 L206.700949,72.8290199 L206.700949,59.4430102 L201.941478,59.4430102 L201.941478,64.2836076 L197.560603,64.2836076 L197.560603,59.4430102 L192.801132,59.4430102 L192.801132,72.8290199 L197.560603,72.8290199 Z M214.272833,72.8290199 L214.272833,63.0396552 L219.464982,63.0396552 L219.464982,59.4430102 L209.513363,59.4430102 L209.513363,72.8290199 L214.272833,72.8290199 Z M220.898232,68.7996958 C220.898232,70.0706906 221.357953,71.125346 222.277396,71.9366193 C223.196839,72.7478926 224.386707,73.1535293 225.819956,73.1535293 C227.307291,73.1535293 228.929838,72.5856379 230.146748,71.6121099 C230.768724,72.5856379 231.796337,73.1535293 233.121416,73.1535293 C233.851562,73.1535293 234.608751,73.0724019 235.365939,72.9371897 L235.068472,69.5298418 C234.82509,69.5568842 234.608751,69.5839266 234.446496,69.5839266 C234.040859,69.5839266 233.770435,69.3135022 233.770435,68.9078655 L233.770435,64.4999472 C233.770435,62.904443 233.202544,61.6064057 232.093803,60.6058353 C230.985063,59.6052648 229.524771,59.1185008 227.685885,59.1185008 C225.738829,59.1185008 223.710646,59.5241375 221.574293,60.3083684 L222.76416,63.5805041 C224.359665,62.9314854 225.819956,62.6069761 227.090951,62.6069761 C228.416031,62.6069761 229.416602,63.3371221 229.416602,64.3917774 L229.416602,64.4999472 C228.578286,64.364735 227.821097,64.2836076 227.117994,64.2836076 C223.196839,64.2836076 220.898232,65.9602392 220.898232,68.7996958 L220.898232,68.7996958 Z M225.360235,68.5022289 C225.360235,67.5557434 226.30672,66.9608096 227.712928,66.9608096 C228.226734,66.9608096 228.794625,67.0148945 229.416602,67.1501067 L229.416602,67.6368707 C229.416602,68.934908 228.416031,69.8813935 227.090951,69.8813935 C226.090381,69.8813935 225.360235,69.2864598 225.360235,68.5022289 L225.360235,68.5022289 Z" id="студия-стайлинга" fill="#FFFFFF"></path>
            <g id="avto-life" transform="translate(2.909091, 0.000000)">
                <g id="life" transform="translate(143.561884, 0.000000)" fill="#F25A23">
                    <path d="M10.90846,34.03613 C10.90846,35.4717488 11.8655392,36.3690106 13.3011581,36.3690106 C14.0189675,36.3690106 14.9162293,36.2493757 15.7536736,36.1297408 L16.82964,44.0263921 C14.6762118,44.5049317 12.5227835,44.7442015 10.6684425,44.7442015 C4.32854034,44.7442015 0.379840818,40.9757021 0.379840818,35.1135918 L0.379840818,1.91266302 L10.9077123,1.91266302 L10.9077123,34.03613 L10.90846,34.03613 Z" id="Shape"></path>
                    <path d="M25.3244659,0.597426798 C28.8536955,0.597426798 31.3660285,3.10901205 31.3660285,6.63898941 C31.3660285,10.1084016 28.8536955,12.6207346 25.3244659,12.6207346 C21.854306,12.6207346 19.3427207,10.1084016 19.3427207,6.63898941 C19.3427207,3.10901205 21.854306,0.597426798 25.3244659,0.597426798 L25.3244659,0.597426798 Z M20.0597824,14.4152581 L30.5876539,14.4152581 L30.5876539,44.0256444 L20.0597824,44.0256444 L20.0597824,14.4152581 L20.0597824,14.4152581 Z" id="Shape"></path>
                    <path d="M39.739724,22.3709792 L34.7741278,22.3709792 L34.7741278,14.4152581 L39.739724,14.4152581 L39.739724,11.6629076 C39.739724,5.38207521 44.2260329,1.1948536 50.86577,1.1948536 C53.1986506,1.1948536 55.5913487,1.49394085 58.2240643,2.15193282 L56.9080803,9.92820153 C55.6511661,9.68893173 54.4555648,9.56929682 53.4379204,9.56929682 C51.523762,9.56929682 50.2675955,10.7656459 50.2675955,12.7396218 L50.2675955,14.4145104 L56.3689755,14.4145104 L56.3689755,22.3702315 L50.2675955,22.3702315 L50.2675955,44.0256444 L39.739724,44.0256444 L39.739724,22.3709792 L39.739724,22.3709792 Z" id="Shape"></path>
                    <path d="M73.5971493,13.6974487 C82.4501322,13.6974487 88.6113297,19.8586462 88.6113297,28.7714465 C88.6113297,29.8489084 88.5515122,30.9248748 88.4318773,31.9425192 L68.1537612,31.9425192 C68.9313881,35.0530267 71.9222607,37.0270026 75.8702125,37.0270026 C78.2629106,37.0270026 81.0743308,36.1895582 84.0652034,34.6343045 L87.1757108,41.6927638 C82.689402,43.7863746 78.2629106,44.7434538 74.5542286,44.7434538 C64.5048967,44.7434538 57.625142,38.3422388 57.625142,29.2499861 C57.6258897,20.097916 64.2058094,13.6974487 73.5971493,13.6974487 L73.5971493,13.6974487 Z M68.1537612,25.7805739 L78.5021804,25.7805739 C78.1440234,23.1478583 76.2291172,21.4139 73.5971493,21.4139 C70.8447988,21.4139 68.7519357,23.1486061 68.1537612,25.7805739 L68.1537612,25.7805739 Z" id="Shape"></path>
                </g>
                <g id="avto" transform="translate(0.000000, 5.234027)" fill="#31D2F7">
                    <path d="M13.8783965,19.8885549 C15.4336502,19.8885549 17.2281738,20.0672596 18.9628799,20.3670946 L18.9628799,20.1278248 C18.9628799,17.8547616 16.8094516,16.1806207 13.818579,16.1806207 C10.8875239,16.1806207 7.59756407,16.9582475 4.24778678,18.3340489 L1.61581891,11.0953896 C6.40121504,9.30161373 10.8875239,8.46342169 15.1353107,8.46342169 C23.2704841,8.46342169 28.5942373,13.2480701 28.5942373,20.3670946 L28.5942373,30.1180869 C28.5942373,31.0153487 29.1924118,31.6135232 30.0896736,31.6135232 C30.5682132,31.6135232 31.0467528,31.5537057 31.465475,31.494636 L32.123467,39.0316349 C30.6280307,39.3299744 28.953142,39.5101745 27.1586185,39.5101745 C24.2275633,39.5101745 21.8946827,38.254008 20.5786988,36.1005798 C17.827096,38.3138255 14.2380489,39.5101745 11.0079065,39.5101745 C4.60743921,39.5101745 0.12113034,35.5622227 0.12113034,29.8795648 C0.120382621,23.5374195 5.26393574,19.8885549 13.8783965,19.8885549 L13.8783965,19.8885549 Z M13.818579,32.2715152 C16.8094516,32.2715152 18.9628799,30.1771566 18.9628799,27.3059189 L18.9628799,26.2292048 C17.7665309,25.9906827 16.5103644,25.8104827 15.1936327,25.8104827 C12.0831252,25.8104827 9.98951442,27.1264666 9.98951442,29.2200774 C9.99026214,30.9555312 11.6053333,32.2715152 13.818579,32.2715152 L13.818579,32.2715152 Z" id="Shape"></path>
                    <polygon id="Shape" points="52.2221307 38.7916174 42.5317035 38.7916174 30.5682132 9.18123111 41.5746243 9.18123111 47.3769171 26.9470142 53.1792099 9.18123111 64.185621 9.18123111"></polygon>
                    <path d="M80.4544724,9.18123111 L87.5129317,9.18123111 L87.5129317,17.1369522 L80.4544724,17.1369522 L80.4544724,27.9646586 C80.4544724,29.9393823 81.7106389,31.1349836 83.6247974,31.1349836 C84.641694,31.1349836 85.8380431,31.0153487 87.0942096,30.7760789 L88.4101935,38.5523476 C85.7782256,39.2103395 83.3855276,39.5094268 81.052647,39.5094268 C74.4129098,39.5094268 69.9266009,35.3222052 69.9266009,29.0413728 L69.9266009,17.1369522 L64.9617525,17.1369522 L64.9617525,9.18123111 L69.9266009,9.18123111 L69.9266009,0.567518072 L80.4544724,0.567518072 L80.4544724,9.18123111 L80.4544724,9.18123111 Z" id="Shape"></path>
                </g>
                <path d="M138.800415,23.9576371 C138.800415,11.4169084 128.633691,1.25018474 116.092962,1.25018474 C103.552234,1.25018474 93.38551,11.4169084 93.38551,23.9576371 C93.38551,30.2317401 95.9344812,35.9061731 100.047679,40.0163797 L100.036463,40.0275955 L116.219327,55.9951165 L123.972416,48.1373465 L107.958537,32.3365666 L107.969752,32.3253509 C105.785668,30.2048222 104.424073,27.2423629 104.424073,23.9576371 C104.424073,17.5138021 109.64838,12.2894954 116.092215,12.2894954 C122.53605,12.2894954 127.760356,17.5138021 127.760356,23.9576371 C127.760356,27.2423629 126.398014,30.2048222 124.213929,32.3253509 L124.22365,32.3350712 L120.264482,36.3480745 L128.120756,44.0996685 L132.147966,40.0186229 L132.141237,40.0118934 C136.252939,35.9024345 138.800415,30.2294969 138.800415,23.9576371 L138.800415,23.9576371 Z" id="Shape" fill="#31D1F6"></path>
            </g>
        </g>
    </g>
</svg>