<svg width="126" height="31" fill="none" xmlns="http://www.w3.org/2000/svg"><path fill-rule="evenodd" clip-rule="evenodd" d="M83.653 18.523c0 .781.515 1.27 1.287 1.27.387 0 .87-.065 1.32-.13l.58 4.297c-1.16.26-2.319.39-3.317.39-3.412 0-5.538-2.05-5.538-5.24V1.04h5.667v17.483zM91.412.325c1.9 0 3.253 1.367 3.253 3.288 0 1.888-1.353 3.255-3.253 3.255-1.867 0-3.22-1.367-3.22-3.255 0-1.921 1.353-3.288 3.22-3.288zm-2.833 7.52h5.667V23.96h-5.667V7.845zm10.593 4.33H96.5v-4.33h2.673V6.347c0-3.418 2.415-5.697 5.989-5.697 1.256 0 2.544.163 3.961.521l-.708 4.232c-.677-.13-1.32-.195-1.868-.195-1.031 0-1.707.65-1.707 1.725v.912h3.285v4.33h-3.285V23.96h-5.667V12.175zm18.225-4.721c4.766 0 8.082 3.353 8.082 8.204 0 .586-.032 1.172-.096 1.726h-10.916c.419 1.692 2.029 2.767 4.154 2.767 1.288 0 2.801-.456 4.411-1.302l1.675 3.841c-2.415 1.14-4.798 1.66-6.794 1.66-5.41 0-9.113-3.483-9.113-8.432 0-4.98 3.542-8.464 8.597-8.464zm-2.93 6.576h5.571c-.193-1.432-1.224-2.376-2.641-2.376-1.481 0-2.608.944-2.93 2.376z" fill="#F25A23"/><path fill-rule="evenodd" clip-rule="evenodd" d="M7.973 13.672c.837 0 1.803.097 2.737.26v-.13c0-1.237-1.159-2.148-2.769-2.148-1.578 0-3.349.424-5.152 1.172l-1.417-3.94c2.576-.975 4.991-1.432 7.278-1.432 4.379 0 7.245 2.604 7.245 6.479v5.306c0 .489.322.814.805.814.257 0 .515-.032.74-.065l.354 4.102a13.57 13.57 0 01-2.672.26c-1.578 0-2.834-.683-3.542-1.855-1.481 1.205-3.413 1.856-5.152 1.856-3.445 0-5.86-2.149-5.86-5.241 0-3.452 2.768-5.438 7.405-5.438zm-.032 6.74c1.61 0 2.77-1.14 2.77-2.703v-.586c-.645-.13-1.32-.228-2.03-.228-1.674 0-2.801.716-2.801 1.856 0 .944.87 1.66 2.061 1.66zm20.672 3.548h-5.216l-6.44-16.115h5.925l3.123 9.669 3.124-9.669h5.924l-6.44 16.115zM43.81 7.845h3.8v4.33h-3.8v5.892c0 1.075.677 1.726 1.707 1.726.547 0 1.191-.065 1.868-.196l.708 4.232c-1.417.358-2.705.521-3.96.521-3.575 0-5.99-2.279-5.99-5.697v-6.478h-2.672v-4.33h2.673V3.157h5.666v4.688z" fill="#31D2F7"/><path fill-rule="evenodd" clip-rule="evenodd" d="M75.218 13.038C75.218 6.213 69.745.68 62.994.68c-6.75 0-12.223 5.533-12.223 12.358 0 3.415 1.372 6.503 3.586 8.74l-.006.006 8.712 8.69 4.173-4.277-8.62-8.599.006-.006a6.361 6.361 0 01-1.909-4.554c0-3.507 2.812-6.35 6.281-6.35s6.28 2.843 6.28 6.35c0 1.788-.732 3.4-1.908 4.554l.005.005-2.131 2.184L69.469 24l2.168-2.221-.004-.004a12.381 12.381 0 003.585-8.737z" fill="#31D1F6"/></svg>