<svg width="237" height="80" xmlns="http://www.w3.org/2000/svg"><g fill="none" fill-rule="evenodd"><path d="M.945 66.976c0 2.054.712 3.752 2.109 5.093 1.396 1.342 3.203 1.999 5.421 1.999 1.944 0 3.779-.548 5.558-1.615l-1.916-3.231c-1.068.684-2.054 1.013-2.957 1.013-1.944 0-3.286-1.315-3.286-3.259s1.342-3.285 3.286-3.285c.903 0 1.889.328 2.957 1.013l1.916-3.204c-1.752-1.095-3.614-1.643-5.558-1.643-2.218 0-4.025.658-5.421 2-1.397 1.34-2.109 3.038-2.109 5.12zm17.332-3.148v9.911h4.82v-9.911h3.64v-3.642H14.609v3.642h3.67zm14.32 9.72l-.246.602c-.52 1.232-1.178 1.78-2.245 1.78-.356 0-.767-.055-1.232-.164l-.603 3.723c.849.192 1.616.274 2.328.274 2.792 0 4.818-1.67 6.105-4.983l5.778-14.594h-5.038l-2.656 8.132-2.656-8.132h-5.038l5.503 13.362zm10.076 4.572h4.409v-4.38h7.283v4.38h4.408v-7.995h-1.752v-9.939H44.89v4.901c0 2.054-.438 3.724-1.342 5.038h-.876v7.995zm5.613-7.995c.548-1.26.822-2.793.822-4.627v-1.67h3.696v6.297h-4.518zm16.976 3.614l5.093-7.119v7.12h4.436V60.185h-4.518l-5.12 7.119v-7.119h-4.436v13.553h4.545zm16.51 0l2.547-3.997h1.177v3.997h4.409V60.186h-7.147c-1.56 0-2.82.438-3.778 1.314-.959.876-1.424 2.026-1.424 3.423 0 1.834 1.013 3.368 2.519 4.025l-3.23 4.791h4.928zm.33-8.761c0-.794.602-1.342 1.505-1.342h1.89v2.683h-1.89c-.903 0-1.506-.547-1.506-1.341zm16.564 1.998c0 2.054.712 3.752 2.109 5.093 1.396 1.342 3.203 1.999 5.421 1.999 1.944 0 3.779-.548 5.558-1.615l-1.916-3.231c-1.068.684-2.054 1.013-2.957 1.013-1.945 0-3.286-1.315-3.286-3.259s1.341-3.285 3.286-3.285c.903 0 1.889.328 2.957 1.013l1.916-3.204c-1.752-1.095-3.614-1.643-5.558-1.643-2.218 0-4.025.658-5.421 2-1.397 1.34-2.109 3.038-2.109 5.12zm17.332-3.148v9.911h4.82v-9.911h3.64v-3.642H112.33v3.642H116zm9.666 5.832c0 1.287.465 2.354 1.396 3.176.93.821 2.136 1.232 3.587 1.232 1.506 0 3.149-.575 4.38-1.56.63.985 1.67 1.56 3.012 1.56.74 0 1.506-.082 2.273-.22l-.301-3.449c-.247.027-.466.055-.63.055-.41 0-.684-.274-.684-.685v-4.463c0-1.615-.575-2.93-1.698-3.943s-2.601-1.506-4.463-1.506c-1.971 0-4.025.411-6.188 1.205l1.205 3.313c1.615-.657 3.094-.985 4.38-.985 1.342 0 2.355.739 2.355 1.807v.11c-.848-.138-1.615-.22-2.327-.22-3.97 0-6.297 1.698-6.297 4.573zm4.517-.301c0-.959.959-1.561 2.382-1.561a8.1 8.1 0 011.725.191v.493c0 1.315-1.013 2.273-2.354 2.273-1.013 0-1.753-.602-1.753-1.396zm16.374 4.38l5.093-7.119v7.12h4.435V60.185h-4.518l-5.12 7.119v-7.119h-4.435v13.553h4.545zm-2.41-19.248c.11 3.04 2.081 4.901 4.901 4.901s4.792-1.862 4.902-4.901h-3.04c-.082 1.013-.794 1.67-1.862 1.67-1.067 0-1.78-.657-1.861-1.67h-3.04zm13.608 19.413c.63.11 1.342.164 2.109.164 1.56 0 2.82-.493 3.778-1.451.986-.959 1.479-2.218 1.479-3.779v-5.01h3.696v9.911h4.627V60.186h-12.95v8.269c0 1.123-.52 1.78-1.424 1.78-.247 0-.548-.028-.904-.082l-.41 3.75zm23.082-.165l5.093-7.119v7.12h4.436V60.185h-4.518l-5.12 7.119v-7.119h-4.436v13.553h4.545zm17.195 0v-5.01h4.436v5.01h4.819V60.186h-4.82v4.901h-4.435v-4.901h-4.819v13.553h4.82zm16.921 0v-9.911h5.257v-3.642h-10.076v13.553h4.82zm6.708-4.08c0 1.288.466 2.355 1.397 3.177.93.821 2.136 1.232 3.587 1.232 1.506 0 3.148-.575 4.38-1.56.63.985 1.67 1.56 3.012 1.56.74 0 1.506-.082 2.273-.22l-.301-3.449c-.247.027-.466.055-.63.055-.41 0-.684-.274-.684-.685v-4.463c0-1.615-.575-2.93-1.698-3.943s-2.601-1.506-4.463-1.506c-1.971 0-4.025.411-6.188 1.205l1.205 3.313c1.615-.657 3.094-.985 4.38-.985 1.342 0 2.355.739 2.355 1.807v.11c-.848-.138-1.615-.22-2.327-.22-3.97 0-6.298 1.698-6.298 4.573zm4.518-.3c0-.959.959-1.561 2.382-1.561a8.1 8.1 0 011.725.191v.493c0 1.315-1.013 2.273-2.354 2.273-1.013 0-1.753-.602-1.753-1.396z" fill="#ADADAD"/><path d="M157.347 34.462c0 1.453.969 2.362 2.422 2.362.727 0 1.636-.122 2.483-.243l1.09 7.996c-2.18.484-4.36.727-6.238.727-6.42 0-10.418-3.816-10.418-9.751V1.937h10.66v32.525zM171.943.605c3.573 0 6.117 2.543 6.117 6.117 0 3.513-2.544 6.056-6.117 6.056-3.514 0-6.057-2.543-6.057-6.056 0-3.574 2.543-6.117 6.057-6.117zm-5.33 13.99h10.659v29.981h-10.66v-29.98zm19.925 8.055h-5.027v-8.055h5.027V11.81c0-6.36 4.543-10.6 11.265-10.6 2.362 0 4.785.304 7.45.97l-1.332 7.873c-1.272-.242-2.483-.363-3.513-.363-1.938 0-3.21 1.211-3.21 3.21v1.696h6.177v8.055h-6.177v21.926h-10.66V22.651zm34.281-8.781c8.964 0 15.202 6.238 15.202 15.262 0 1.091-.06 2.18-.182 3.21h-20.531c.787 3.15 3.815 5.149 7.812 5.149 2.423 0 5.27-.848 8.298-2.423l3.15 7.147c-4.543 2.12-9.025 3.089-12.78 3.089-10.175 0-17.14-6.481-17.14-15.687 0-9.267 6.662-15.747 16.171-15.747zm-5.511 12.234h10.477c-.362-2.666-2.301-4.421-4.966-4.421-2.787 0-4.906 1.756-5.511 4.42z" fill="#F25A23"/><path d="M14.997 25.437c1.575 0 3.392.18 5.148.484v-.242c0-2.302-2.18-3.997-5.208-3.997-2.968 0-6.299.788-9.69 2.18L2.58 16.535c4.846-1.817 9.388-2.665 13.689-2.665 8.237 0 13.627 4.844 13.627 12.052v9.873c0 .908.606 1.514 1.514 1.514.485 0 .97-.06 1.393-.12l.666 7.631c-1.514.302-3.21.485-5.026.485-2.968 0-5.33-1.272-6.663-3.453-2.786 2.241-6.42 3.453-9.69 3.453-6.48 0-11.023-3.998-11.023-9.751 0-6.422 5.207-10.116 13.93-10.116zm-.06 12.537c3.028 0 5.208-2.12 5.208-5.027v-1.09c-1.21-.242-2.483-.424-3.816-.424-3.15 0-5.27 1.332-5.27 3.452.002 1.757 1.637 3.09 3.878 3.09zm38.883 6.602h-9.81l-12.113-29.98H43.04l5.875 17.987 5.874-17.988h11.144zm28.586-29.981h7.146v8.056h-7.146v10.963c0 2 1.271 3.21 3.21 3.21 1.03 0 2.24-.122 3.512-.364l1.333 7.874c-2.665.666-5.088.969-7.45.969-6.722 0-11.265-4.24-11.265-10.6V22.652H66.72v-8.056h5.027v-8.72h10.66v8.72z" fill="#31D2F7"/><path d="M141.48 24.257c0-12.697-10.293-22.991-22.99-22.991-12.698 0-22.992 10.294-22.992 22.991 0 6.353 2.581 12.098 6.746 16.26l-.012.01 16.386 16.168 7.85-7.956-16.215-15.998.012-.012a11.772 11.772 0 01-3.59-8.472c0-6.524 5.29-11.814 11.814-11.814s11.814 5.29 11.814 11.814c0 3.326-1.38 6.325-3.59 8.472l.009.01-4.009 4.063 7.955 7.849 4.077-4.132-.007-.007c4.164-4.16 6.743-9.905 6.743-16.255z" fill="#31D1F6"/></g></svg>