<?xml version="1.0" encoding="UTF-8"?>
<svg width="512px" height="512px" viewBox="0 0 512 512" version="1.1" xmlns="http://www.w3.org/2000/svg" xmlns:xlink="http://www.w3.org/1999/xlink">
    <!-- Generator: Sketch 57 (83077) - https://sketch.com -->
    <title>whatsapp</title>
    <desc>Created with Sketch.</desc>
    <g id="Page-1" stroke="none" stroke-width="1" fill="none" fill-rule="evenodd">
        <g id="whatsapp" fill-rule="nonzero">
            <circle id="Oval" fill="#75B73B" cx="256" cy="256" r="256"></circle>
            <path d="M360.241,151.826 C345.398,148.114 323.57,135.294 309.441,130.155 C254.276,112.916 180.148,126.707 159.461,190.492 C157.737,192.216 154.289,192.216 152.565,192.216 C111.191,240.485 138.774,299.098 135.326,352.539 C134.149,371.378 124.243,388.036 111.495,402.127 L218.777,509.297 C230.931,511.067 243.355,512 256,512 C382.436,512 487.452,420.335 508.247,299.839 L360.241,151.826 Z" id="Path" fill="#52891D"></path>
            <g id="Group" transform="translate(109.000000, 108.000000)" fill="#FFFFFF">
                <path d="M139.837,0.447 C61.808,4.159 0.233,69.143 0.46732959,147.258 C0.54,171.05 6.284,193.507 16.418,213.353 L0.861,288.867 C0.02,292.953 3.704,296.53 7.762,295.568 L81.757,278.038 C100.768,287.509 122.121,292.977 144.719,293.322 C224.472,294.541 290.97,231.217 293.459,151.493 C296.121,66.035 225.591,-3.638 139.837,0.447 L139.837,0.447 Z M228.13,227.936 C206.461,249.605 177.647,261.54 147,261.54 C129.056,261.54 111.874,257.513 95.934,249.574 L85.632,244.44 L40.262,255.187 L49.811,208.831 L44.736,198.888 C36.46,182.682 32.264,165.16 32.264,146.804 C32.264,116.156 44.199,87.345 65.868,65.674 C87.344,44.196 116.627,32.07 147.002,32.07 C177.646,32.07 206.46,44.005 228.129,65.674 C249.798,87.343 261.733,116.157 261.733,146.801 C261.733,177.177 249.607,206.459 228.13,227.936 L228.13,227.936 Z" id="Shape"></path>
                <path d="M218.115,178.582 L189.731,170.433 C186.002,169.364 181.982,170.423 179.263,173.193 L172.321,180.263 C169.395,183.247 164.955,184.204 161.081,182.637 C147.654,177.203 119.409,152.089 112.2,139.531 C110.116,135.907 110.461,131.379 113.017,128.069 L119.075,120.23 C121.449,117.16 121.949,113.033 120.38,109.483 L108.439,82.475 C105.579,76.007 97.313,74.123 91.912,78.691 C83.991,85.392 74.592,95.571 73.451,106.851 C71.436,126.738 79.966,151.805 112.213,181.906 C149.47,216.684 179.307,221.275 198.736,216.57 C209.755,213.903 218.561,203.205 224.115,194.444 C227.906,188.467 224.91,180.535 218.115,178.582 L218.115,178.582 Z" id="Path"></path>
            </g>
            <g id="Group" transform="translate(110.000000, 147.000000)" fill="#D1D1D1">
                <path d="M246.004,0.708 L223.781,23.486 C224.912,24.531 226.038,25.582 227.132,26.677 C248.802,48.346 260.736,77.16 260.736,107.804 C260.736,138.179 248.608,167.46 227.132,188.938 C205.463,210.607 176.649,222.542 146.002,222.542 C128.058,222.542 110.877,218.515 94.936,210.576 L84.634,205.442 L39.264,216.189 L40.202,211.636 L0.028,252.808 C0.914,255.471 3.733,257.283 6.762,256.566 L80.757,239.036 C99.768,248.507 121.121,253.975 143.719,254.32 C223.472,255.539 289.972,192.215 292.459,112.491 C293.834,68.357 275.686,28.435 246.004,0.708 Z" id="Path"></path>
                <path d="M217.115,139.582 L188.731,131.433 C185.002,130.364 180.982,131.423 178.263,134.193 L171.321,141.263 C168.395,144.247 163.955,145.204 160.081,143.637 C152.325,140.498 139.63,130.792 128.896,120.733 L109.164,140.958 C109.841,141.606 110.516,142.253 111.214,142.906 C148.471,177.684 178.308,182.275 197.737,177.57 C208.756,174.903 217.562,164.205 223.116,155.444 C226.906,149.467 223.91,141.535 217.115,139.582 Z" id="Path"></path>
            </g>
        </g>
    </g>
</svg>