<svg width="70" height="70" viewBox="0 0 70 70" fill="none" xmlns="http://www.w3.org/2000/svg">
<g clip-path="url(#clip0)">
<path d="M12.3116 54.1337C11.3316 54.1337 10.3896 54.3783 9.55376 54.8376C5.15099 49.1936 2.73438 42.1825 2.73438 35C2.73438 17.2084 17.2084 2.73438 35 2.73438C37.1629 2.73438 39.3248 2.9496 41.4258 3.37418C42.1649 3.52371 42.887 3.0452 43.0365 2.30499C43.186 1.56479 42.7075 0.843811 41.9673 0.693741C39.6885 0.233383 37.3445 0 35 0C25.6513 0 16.8618 3.64067 10.2512 10.2512C3.64067 16.8618 0 25.6513 0 35C0 42.864 2.67029 50.5384 7.53181 56.6908C6.9059 57.6259 6.56944 58.725 6.56944 59.8759C6.56944 61.4097 7.16705 62.8516 8.25172 63.9358C9.33586 65.0204 10.7778 65.6181 12.3116 65.6181C13.8454 65.6181 15.2874 65.0204 16.3721 63.9358C17.4567 62.8516 18.0538 61.4091 18.0538 59.8753C18.0538 58.3421 17.4567 56.8996 16.3721 55.8154C15.2874 54.7308 13.8454 54.1337 12.3116 54.1337ZM14.4382 62.0025C13.8705 62.5707 13.1149 62.8837 12.3116 62.8837C11.5084 62.8837 10.7533 62.5707 10.185 62.0025C9.61678 61.4342 9.30382 60.6791 9.30382 59.8759C9.30382 59.0721 9.61678 58.317 10.185 57.7487C10.7527 57.1805 11.5084 56.8681 12.3116 56.8681C13.1149 56.8681 13.87 57.181 14.4382 57.7487C15.0065 58.317 15.3194 59.0721 15.3194 59.8759C15.3194 60.6791 15.0065 61.4342 14.4382 62.0025Z" fill="#9C9C9C"/>
<path d="M62.4674 13.3076C63.9537 11.0779 63.7149 8.02948 61.7491 6.06361C60.6644 4.97948 59.2224 4.38187 57.6886 4.38187C56.1548 4.38187 54.7129 4.97948 53.6282 6.06361C52.5435 7.14828 51.9464 8.59024 51.9464 10.1241C51.9464 11.6579 52.5435 13.0998 53.6282 14.1845C54.7129 15.2692 56.1548 15.8662 57.6886 15.8662C58.6686 15.8662 59.6107 15.6216 60.4465 15.1624C64.8493 20.8068 67.2659 27.8174 67.2659 34.9999C67.2659 52.7915 52.7918 67.2655 35.0002 67.2655C32.8587 67.2655 30.7171 67.0546 28.6359 66.638C27.8957 66.4901 27.1752 66.9702 27.0268 67.7104C26.8788 68.4512 27.359 69.1711 28.0992 69.3195C30.3566 69.7708 32.6787 69.9999 35.0002 69.9999C44.3489 69.9999 53.1384 66.3593 59.749 59.7487C66.3596 53.1381 70.0003 44.3486 70.0003 34.9999C70.0003 27.1354 67.3294 19.4604 62.4674 13.3076ZM55.562 12.2512C54.9938 11.683 54.6808 10.9278 54.6808 10.1241C54.6808 9.32083 54.9938 8.56567 55.562 7.99744C56.1297 7.4292 56.8854 7.11624 57.6886 7.11624C58.4918 7.11624 59.2475 7.4292 59.8158 7.99744C60.988 9.17023 60.988 11.0784 59.8158 12.2512C59.2475 12.8189 58.4918 13.1319 57.6886 13.1319C56.8849 13.1319 56.1297 12.8189 55.562 12.2512Z" fill="#9C9C9C"/>
<path d="M29.3584 58.5156C29.3584 59.2708 29.971 59.8828 30.7256 59.8828H39.2742C40.0294 59.8828 40.6414 59.2708 40.6414 58.5156V55.8651C42.4391 55.3812 44.1577 54.6688 45.7727 53.7385L47.644 55.6098C47.9003 55.8662 48.248 56.0104 48.6112 56.0104C48.9733 56.0104 49.3215 55.8662 49.5778 55.6093L55.6201 49.5627C56.1537 49.0286 56.1537 48.1629 55.6201 47.6294L53.7509 45.7602C54.6813 44.1452 55.3937 42.4266 55.8776 40.629H58.5179C59.2731 40.629 59.8851 40.0169 59.8851 39.2618V30.7131C59.8851 29.958 59.2731 29.3459 58.5179 29.3459H55.877C55.3932 27.5488 54.6813 25.8302 53.7509 24.2152L55.61 22.3562C55.8663 22.0998 56.0105 21.7516 56.0105 21.389C56.01 21.0264 55.8658 20.6782 55.6095 20.4218L49.5623 14.3795C49.0288 13.846 48.1631 13.846 47.629 14.38L45.7727 16.237C44.1577 15.3066 42.4391 14.5942 40.6414 14.1103V11.4844C40.6414 10.7292 40.0294 10.1172 39.2742 10.1172H30.7256C29.971 10.1172 29.3584 10.7292 29.3584 11.4844V14.1109C27.5613 14.5942 25.8427 15.3066 24.2277 16.237L22.3708 14.38C21.8373 13.8465 20.9716 13.846 20.4375 14.3795L14.3909 20.4224C14.134 20.6787 13.9898 21.0264 13.9898 21.389C13.9898 21.7516 14.134 22.0998 14.3904 22.3562L16.2494 24.2152C15.3191 25.8302 14.6067 27.5483 14.1228 29.3459H11.4872C10.7321 29.3459 10.12 29.958 10.12 30.7126L10.1152 39.2612C10.1147 39.6239 10.2589 39.9721 10.5152 40.2284C10.7716 40.4848 11.1193 40.629 11.4824 40.629H14.1228C14.6067 42.4266 15.3191 44.1452 16.2494 45.7602L14.3802 47.6294C13.8467 48.1629 13.8462 49.0286 14.3802 49.5627L20.4225 55.6093C20.6789 55.8656 21.0266 56.0104 21.3892 56.0104H21.3897C21.7524 56.0104 22.1 55.8662 22.3564 55.6098L24.2272 53.7385C25.8427 54.6688 27.5613 55.3812 29.3584 55.8651V58.5156ZM24.7634 50.8631C24.2224 50.5133 23.5105 50.5891 23.0544 51.0447L21.3897 52.7094L17.2802 48.5966L18.9432 46.933C19.3988 46.4774 19.4746 45.7655 19.1248 45.2245C17.8852 43.3062 17.0137 41.2036 16.5351 38.9745C16.3995 38.3448 15.843 37.8946 15.1984 37.8946H12.8501L12.8533 32.0803H15.1984C15.843 32.0803 16.3995 31.6306 16.5351 31.0004C17.0137 28.7718 17.8852 26.6692 19.1248 24.7509C19.4746 24.2099 19.3988 23.498 18.9432 23.0424L17.2908 21.3895L21.4036 17.28L23.0544 18.9313C23.5105 19.3868 24.2218 19.4621 24.7634 19.1129C26.6812 17.8733 28.7838 17.0017 31.0129 16.5232C31.6426 16.3876 32.0928 15.8305 32.0928 15.1865V12.8516H37.9071V15.1859C37.9071 15.8305 38.3567 16.3876 38.9869 16.5227C41.2155 17.0017 43.3187 17.8728 45.2365 19.1123C45.7775 19.4621 46.4894 19.3868 46.9449 18.9307L48.5962 17.28L52.709 21.3895L51.0566 23.0419C50.6005 23.498 50.5252 24.2099 50.875 24.7509C52.1146 26.6692 52.9856 28.7718 53.4647 31.0004C53.5998 31.6306 54.1568 32.0803 54.8014 32.0803H57.1508V37.8946H54.8014C54.1568 37.8946 53.6003 38.3448 53.4647 38.9745C52.9862 41.2031 52.1146 43.3062 50.875 45.224C50.5252 45.7655 50.6011 46.4774 51.0566 46.933L52.7197 48.596L48.6101 52.7088L46.9454 51.0447C46.4894 50.5886 45.7775 50.5133 45.2365 50.8631C43.3181 52.1027 41.2155 52.9737 38.9869 53.4528C38.3567 53.5884 37.9071 54.1449 37.9071 54.7895V57.1484H32.0928V54.7895C32.0928 54.1454 31.6426 53.5884 31.0129 53.4528C28.7843 52.9742 26.6817 52.1027 24.7634 50.8631Z" fill="#FE6128"/>
<path d="M46.2975 35.0001C46.2975 28.7708 41.2298 23.7032 35.0005 23.7032C28.7713 23.7032 23.7036 28.7708 23.7036 35.0001C23.7036 41.2293 28.7713 46.297 35.0005 46.297C41.2298 46.297 46.2975 41.2293 46.2975 35.0001ZM26.438 35.0001C26.438 30.2785 30.2789 26.4375 35.0005 26.4375C39.7221 26.4375 43.5631 30.279 43.5631 35.0001C43.5631 39.7211 39.7221 43.5626 35.0005 43.5626C30.2789 43.5626 26.438 39.7217 26.438 35.0001Z" fill="#FE6128"/>
<path d="M47.5884 5.17082C47.9483 5.17082 48.3008 5.02449 48.555 4.77028C48.8092 4.51447 48.9556 4.16199 48.9556 3.80203C48.9556 3.44421 48.8098 3.0912 48.555 2.83539C48.3008 2.58118 47.9483 2.43484 47.5884 2.43484C47.2274 2.43484 46.8765 2.58118 46.6223 2.83539C46.3675 3.0912 46.2212 3.44261 46.2212 3.80203C46.2212 4.16306 46.3675 4.51447 46.6223 4.77028C46.8765 5.02449 47.2274 5.17082 47.5884 5.17082Z" fill="#FE6128"/>
<path d="M22.4712 64.8538C22.1118 64.8538 21.7588 65.0002 21.5045 65.2544C21.2503 65.5086 21.104 65.8616 21.104 66.221C21.104 66.582 21.2503 66.9334 21.5045 67.1877C21.7588 67.4419 22.1118 67.5882 22.4712 67.5882C22.8306 67.5882 23.1836 67.4419 23.4378 67.1877C23.692 66.9334 23.8384 66.5804 23.8384 66.221C23.8384 65.8616 23.692 65.5086 23.4378 65.2544C23.1836 65.0002 22.8306 64.8538 22.4712 64.8538Z" fill="#FE6128"/>
</g>
<defs>
<clipPath id="clip0">
<rect width="70" height="70" fill="white"/>
</clipPath>
</defs>
</svg>
