<?xml version="1.0" encoding="UTF-8"?>
<svg width="237px" height="80px" viewBox="0 0 237 80" version="1.1" xmlns="http://www.w3.org/2000/svg" xmlns:xlink="http://www.w3.org/1999/xlink">
    <!-- Generator: Sketch 57 (83077) - https://sketch.com -->
    <title>logo</title>
    <desc>Created with Sketch.</desc>
    <g id="Page-1" stroke="none" stroke-width="1" fill="none" fill-rule="evenodd">
        <g id="logo" transform="translate(-2.000000, 0.000000)">
            <path d="M2.94545455,66.9764055 C2.94545455,69.0299411 3.65734688,70.7275305 5.05375108,72.0691737 C6.45015528,73.410817 8.2572666,74.0679484 10.475085,74.0679484 C12.4190987,74.0679484 14.2535905,73.5203389 16.0333214,72.4525004 L14.1166881,69.2216044 C13.0488496,69.9061162 12.0631526,70.2346819 11.1595969,70.2346819 C9.21558321,70.2346819 7.87393996,68.9204192 7.87393996,66.9764055 C7.87393996,65.0323918 9.21558321,63.6907485 11.1595969,63.6907485 C12.0631526,63.6907485 13.0488496,64.0193142 14.1166881,64.7038261 L16.0333214,61.5003106 C14.280971,60.4050916 12.4190987,59.8574821 10.475085,59.8574821 C8.2572666,59.8574821 6.45015528,60.5146135 5.05375108,61.8562567 C3.65734688,63.1979 2.94545455,64.8954894 2.94545455,66.9764055 L2.94545455,66.9764055 Z M20.2772949,63.8276509 L20.2772949,73.7393827 L25.0962584,73.7393827 L25.0962584,63.8276509 L28.7378615,63.8276509 L28.7378615,60.1860478 L16.6083113,60.1860478 L16.6083113,63.8276509 L20.2772949,63.8276509 Z M34.5972831,73.5477194 L34.3508588,74.1500898 C33.8306298,75.3822111 33.1734984,75.9298206 32.1056599,75.9298206 C31.7497137,75.9298206 31.3390066,75.8750597 30.8735385,75.7655378 L30.2711681,79.4892823 C31.1199628,79.6809456 31.8866161,79.7630871 32.5985084,79.7630871 C35.3913168,79.7630871 37.417472,78.0928781 38.7043543,74.7798407 L44.4816344,60.1860478 L39.4436271,60.1860478 L36.787721,68.3180487 L34.131815,60.1860478 L29.0938077,60.1860478 L34.5972831,73.5477194 Z M44.6732977,78.1202586 L49.0815541,78.1202586 L49.0815541,73.7393827 L56.3647603,73.7393827 L56.3647603,78.1202586 L60.7730167,78.1202586 L60.7730167,70.12516 L59.0206663,70.12516 L59.0206663,60.1860478 L46.8911161,60.1860478 L46.8911161,65.0871527 C46.8911161,67.1406883 46.4530285,68.8108973 45.5494729,70.12516 L44.6732977,70.12516 L44.6732977,78.1202586 Z M50.286295,70.12516 C50.8339045,68.8656582 51.1077092,67.3323516 51.1077092,65.4978598 L51.1077092,63.8276509 L54.8040733,63.8276509 L54.8040733,70.12516 L50.286295,70.12516 Z M67.2621892,73.7393827 L72.3549574,66.6204593 L72.3549574,73.7393827 L76.7905943,73.7393827 L76.7905943,60.1860478 L72.272816,60.1860478 L67.1526673,67.3049712 L67.1526673,60.1860478 L62.7170304,60.1860478 L62.7170304,73.7393827 L67.2621892,73.7393827 Z M83.7726153,73.7393827 L86.3189994,69.7418334 L87.4963598,69.7418334 L87.4963598,73.7393827 L91.9046162,73.7393827 L91.9046162,60.1860478 L84.7583124,60.1860478 C83.1976253,60.1860478 81.9381235,60.6241354 80.9798069,61.5003106 C80.0214903,62.3764857 79.5560222,63.5264657 79.5560222,64.9228699 C79.5560222,66.7573617 80.5690998,68.2906682 82.0750259,68.9477996 L78.8441299,73.7393827 L83.7726153,73.7393827 Z M84.101181,64.9776308 C84.101181,64.1835971 84.7035514,63.6359876 85.6071071,63.6359876 L87.4963598,63.6359876 L87.4963598,66.3192741 L85.6071071,66.3192741 C84.7035514,66.3192741 84.101181,65.7716646 84.101181,64.9776308 L84.101181,64.9776308 Z M100.666368,66.9764055 C100.666368,69.0299411 101.37826,70.7275305 102.774665,72.0691737 C104.171069,73.410817 105.97818,74.0679484 108.195999,74.0679484 C110.140012,74.0679484 111.974504,73.5203389 113.754235,72.4525004 L111.837602,69.2216044 C110.769763,69.9061162 109.784066,70.2346819 108.88051,70.2346819 C106.936497,70.2346819 105.594853,68.9204192 105.594853,66.9764055 C105.594853,65.0323918 106.936497,63.6907485 108.88051,63.6907485 C109.784066,63.6907485 110.769763,64.0193142 111.837602,64.7038261 L113.754235,61.5003106 C112.001885,60.4050916 110.140012,59.8574821 108.195999,59.8574821 C105.97818,59.8574821 104.171069,60.5146135 102.774665,61.8562567 C101.37826,63.1979 100.666368,64.8954894 100.666368,66.9764055 L100.666368,66.9764055 Z M117.998208,63.8276509 L117.998208,73.7393827 L122.817172,73.7393827 L122.817172,63.8276509 L126.458775,63.8276509 L126.458775,60.1860478 L114.329225,60.1860478 L114.329225,63.8276509 L117.998208,63.8276509 Z M127.663516,69.659692 C127.663516,70.9465743 128.128984,72.0144128 129.05992,72.835827 C129.990856,73.6572412 131.195597,74.0679484 132.646762,74.0679484 C134.152688,74.0679484 135.795517,73.4929584 137.027638,72.5072613 C137.657389,73.4929584 138.697847,74.0679484 140.03949,74.0679484 C140.778763,74.0679484 141.545417,73.9858069 142.31207,73.8489046 L142.010885,70.3989648 C141.76446,70.4263453 141.545417,70.4537257 141.381134,70.4537257 C140.970427,70.4537257 140.696622,70.179921 140.696622,69.7692139 L140.696622,65.3061965 C140.696622,63.6907485 140.121632,62.3764857 138.999032,61.3634082 C137.876433,60.3503306 136.397887,59.8574821 134.536015,59.8574821 C132.564621,59.8574821 130.511085,60.2681892 128.348028,61.062223 L129.552769,64.3752604 C131.168217,63.718129 132.646762,63.3895633 133.933645,63.3895633 C135.275288,63.3895633 136.288365,64.1288361 136.288365,65.1966746 L136.288365,65.3061965 C135.439571,65.1692941 134.672917,65.0871527 133.961025,65.0871527 C129.990856,65.0871527 127.663516,66.7847421 127.663516,69.659692 L127.663516,69.659692 Z M132.181294,69.3585068 C132.181294,68.4001901 133.139611,67.7978197 134.563396,67.7978197 C135.083625,67.7978197 135.658614,67.8525807 136.288365,67.989483 L136.288365,68.4823316 C136.288365,69.7965943 135.275288,70.754911 133.933645,70.754911 C132.920567,70.754911 132.181294,70.1525405 132.181294,69.3585068 L132.181294,69.3585068 Z M148.554818,73.7393827 L153.647586,66.6204593 L153.647586,73.7393827 L158.083223,73.7393827 L158.083223,60.1860478 L153.565445,60.1860478 L148.445296,67.3049712 L148.445296,60.1860478 L144.009659,60.1860478 L144.009659,73.7393827 L148.554818,73.7393827 Z M146.145336,54.4909091 C146.254858,57.5301418 148.226252,59.392014 151.046441,59.392014 C153.86663,59.392014 155.838024,57.5301418 155.947546,54.4909091 L152.908313,54.4909091 C152.826172,55.5039866 152.11428,56.161118 151.046441,56.161118 C149.978603,56.161118 149.26671,55.5039866 149.184569,54.4909091 L146.145336,54.4909091 Z M159.753432,73.9036655 C160.383183,74.0131874 161.095075,74.0679484 161.861729,74.0679484 C163.422416,74.0679484 164.681917,73.5750998 165.640234,72.6167832 C166.625931,71.6584666 167.11878,70.3989648 167.11878,68.8382777 L167.11878,63.8276509 L170.815144,63.8276509 L170.815144,73.7393827 L175.442444,73.7393827 L175.442444,60.1860478 L162.49148,60.1860478 L162.49148,68.4549511 C162.49148,69.5775505 161.971251,70.2346819 161.067695,70.2346819 C160.821271,70.2346819 160.520085,70.2073015 160.164139,70.1525405 L159.753432,73.9036655 Z M182.835172,73.7393827 L187.92794,66.6204593 L187.92794,73.7393827 L192.363577,73.7393827 L192.363577,60.1860478 L187.845799,60.1860478 L182.72565,67.3049712 L182.72565,60.1860478 L178.290013,60.1860478 L178.290013,73.7393827 L182.835172,73.7393827 Z M200.03011,73.7393827 L200.03011,68.7287558 L204.465747,68.7287558 L204.465747,73.7393827 L209.28471,73.7393827 L209.28471,60.1860478 L204.465747,60.1860478 L204.465747,65.0871527 L200.03011,65.0871527 L200.03011,60.1860478 L195.211147,60.1860478 L195.211147,73.7393827 L200.03011,73.7393827 Z M216.951243,73.7393827 L216.951243,63.8276509 L222.208294,63.8276509 L222.208294,60.1860478 L212.13228,60.1860478 L212.13228,73.7393827 L216.951243,73.7393827 Z M223.65946,69.659692 C223.65946,70.9465743 224.124928,72.0144128 225.055864,72.835827 C225.9868,73.6572412 227.191541,74.0679484 228.642706,74.0679484 C230.148632,74.0679484 231.791461,73.4929584 233.023582,72.5072613 C233.653333,73.4929584 234.693791,74.0679484 236.035434,74.0679484 C236.774707,74.0679484 237.54136,73.9858069 238.308013,73.8489046 L238.006828,70.3989648 C237.760404,70.4263453 237.54136,70.4537257 237.377077,70.4537257 C236.96637,70.4537257 236.692565,70.179921 236.692565,69.7692139 L236.692565,65.3061965 C236.692565,63.6907485 236.117575,62.3764857 234.994976,61.3634082 C233.872377,60.3503306 232.393831,59.8574821 230.531959,59.8574821 C228.560565,59.8574821 226.507029,60.2681892 224.343971,61.062223 L225.548712,64.3752604 C227.16416,63.718129 228.642706,63.3895633 229.929588,63.3895633 C231.271231,63.3895633 232.284309,64.1288361 232.284309,65.1966746 L232.284309,65.3061965 C231.435514,65.1692941 230.668861,65.0871527 229.956969,65.0871527 C225.9868,65.0871527 223.65946,66.7847421 223.65946,69.659692 L223.65946,69.659692 Z M228.177238,69.3585068 C228.177238,68.4001901 229.135554,67.7978197 230.559339,67.7978197 C231.079568,67.7978197 231.654558,67.8525807 232.284309,67.989483 L232.284309,68.4823316 C232.284309,69.7965943 231.271231,70.754911 229.929588,70.754911 C228.916511,70.754911 228.177238,70.1525405 228.177238,69.3585068 L228.177238,69.3585068 Z" id="студия-стайлинга" fill="#ADADAD"></path>
            <g id="avto-life" transform="translate(2.945455, 0.000000)">
                <g id="life" transform="translate(145.356407, 0.000000)" fill="#F25A23">
                    <path d="M11.0448158,34.4615816 C11.0448158,35.9151457 12.0138585,36.8236232 13.4674226,36.8236232 C14.1942046,36.8236232 15.1026821,36.7024929 15.9505945,36.5813625 L17.0400105,44.576722 C14.8596644,45.0612434 12.6793183,45.3035041 10.801798,45.3035041 C4.3826471,45.3035041 0.384588828,41.4878984 0.384588828,35.5525117 L0.384588828,1.9365713 L11.0440587,1.9365713 L11.0440587,34.4615816 L11.0448158,34.4615816 Z" id="Shape"></path>
                    <path d="M25.6410217,0.604894633 C29.2143667,0.604894633 31.7581038,3.1478747 31.7581038,6.72197678 C31.7581038,10.2347566 29.2143667,12.7784938 25.6410217,12.7784938 C22.1274848,12.7784938 19.5845047,10.2347566 19.5845047,6.72197678 C19.5845047,3.1478747 22.1274848,0.604894633 25.6410217,0.604894633 L25.6410217,0.604894633 Z M20.3105297,14.5954488 L30.9699996,14.5954488 L30.9699996,44.575965 L20.3105297,44.575965 L20.3105297,14.5954488 L20.3105297,14.5954488 Z" id="Shape"></path>
                    <path d="M40.2364705,22.6506164 L35.2088044,22.6506164 L35.2088044,14.5954488 L40.2364705,14.5954488 L40.2364705,11.808694 C40.2364705,5.44935115 44.7788583,1.20978927 51.5015921,1.20978927 C53.8636337,1.20978927 56.2862405,1.51261512 58.9518651,2.17883198 L57.6194313,10.0523041 C56.3468057,9.81004337 55.1362594,9.68891303 54.1058944,9.68891303 C52.167809,9.68891303 50.8959404,10.9002164 50.8959404,12.898867 L50.8959404,14.5946918 L57.0735877,14.5946918 L57.0735877,22.6498594 L50.8959404,22.6498594 L50.8959404,44.575965 L40.2364705,44.575965 L40.2364705,22.6506164 L40.2364705,22.6506164 Z" id="Shape"></path>
                    <path d="M74.5171137,13.8686668 C83.4807588,13.8686668 89.7189713,20.1068793 89.7189713,29.1310896 C89.7189713,30.2220197 89.6584061,31.3114357 89.5372758,32.3418007 L69.0056832,32.3418007 C69.7930304,35.4911895 72.8212889,37.4898401 76.8185901,37.4898401 C79.2411969,37.4898401 82.0877599,36.6419277 85.1160184,35.0672333 L88.2654072,42.2139233 C83.7230195,44.3337043 79.2411969,45.302747 75.4861564,45.302747 C65.3112079,45.302747 58.3454563,38.8215168 58.3454563,29.615611 C58.3462134,20.34914 65.008382,13.8686668 74.5171137,13.8686668 L74.5171137,13.8686668 Z M69.0056832,26.1028311 L79.4834576,26.1028311 C79.1208237,23.4372066 77.1819812,21.6815737 74.5171137,21.6815737 C71.7303588,21.6815737 69.6113349,23.4379636 69.0056832,26.1028311 L69.0056832,26.1028311 Z" id="Shape"></path>
                </g>
                <g id="avto" transform="translate(0.000000, 5.299452)" fill="#31D2F7">
                    <path d="M14.0518765,20.1371619 C15.6265709,20.1371619 17.443526,20.3181003 19.1999159,20.6216832 L19.1999159,20.3794226 C19.1999159,18.0779461 17.0195698,16.3828784 13.9913113,16.3828784 C11.023618,16.3828784 7.69253363,17.1702256 4.30088412,18.5632245 L1.63601665,11.2340819 C6.48123023,9.4178839 11.023618,8.56921446 15.3245021,8.56921446 C23.5613652,8.56921446 28.9516653,13.413671 28.9516653,20.6216832 L28.9516653,30.494563 C28.9516653,31.4030405 29.557317,32.0086922 30.4657945,32.0086922 C30.9503159,32.0086922 31.4348372,31.9481271 31.8587934,31.8883189 L32.5250103,39.5195303 C31.0108811,39.8215991 29.3150563,40.0040517 27.4981012,40.0040517 C24.5304079,40.0040517 22.1683663,38.7321831 20.8359325,36.551837 C18.0499347,38.7927483 14.4160245,40.0040517 11.1455054,40.0040517 C4.6650322,40.0040517 0.122644469,36.0067505 0.122644469,30.2530594 C0.121887404,23.8316372 5.32973494,20.1371619 14.0518765,20.1371619 L14.0518765,20.1371619 Z M13.9913113,32.6749091 C17.0195698,32.6749091 19.1999159,30.5543711 19.1999159,27.6472429 L19.1999159,26.5570699 C17.9886125,26.3155663 16.7167439,26.1331137 15.3835531,26.1331137 C12.2341643,26.1331137 10.1143834,27.4655474 10.1143834,29.5853284 C10.1151404,31.3424754 11.7504,32.6749091 13.9913113,32.6749091 L13.9913113,32.6749091 Z" id="Shape"></path>
                    <polygon id="Shape" points="52.8749073 39.2765126 43.0633498 39.2765126 30.9503159 9.2959965 42.0943071 9.2959965 47.9691286 27.2838519 53.8439501 9.2959965 64.9879413 9.2959965"></polygon>
                    <path d="M81.4601533,9.2959965 L88.6068434,9.2959965 L88.6068434,17.3511641 L81.4601533,17.3511641 L81.4601533,28.3142169 C81.4601533,30.3136245 82.7320219,31.5241709 84.6701073,31.5241709 C85.6997152,31.5241709 86.9110186,31.4030405 88.1828872,31.1607798 L89.5153209,39.0342519 C86.8504535,39.7004688 84.4278467,40.0032946 82.065805,40.0032946 C75.3430712,40.0032946 70.8006835,35.7637327 70.8006835,29.4043899 L70.8006835,17.3511641 L65.7737744,17.3511641 L65.7737744,9.2959965 L70.8006835,9.2959965 L70.8006835,0.574612048 L81.4601533,0.574612048 L81.4601533,9.2959965 L81.4601533,9.2959965 Z" id="Shape"></path>
                </g>
                <path d="M140.53542,24.2571076 C140.53542,11.5596197 130.241612,1.26581205 117.544124,1.26581205 C104.846637,1.26581205 94.5528289,11.5596197 94.5528289,24.2571076 C94.5528289,30.6096368 97.1336622,36.3550002 101.298275,40.5165844 L101.286919,40.5279404 L117.672068,56.6950554 L125.522071,48.7390633 L109.308018,32.7407737 L109.319374,32.7294177 C107.107989,30.5823825 105.729374,27.5828924 105.729374,24.2571076 C105.729374,17.7327246 111.018984,12.4431141 117.543367,12.4431141 C124.06775,12.4431141 129.357361,17.7327246 129.357361,24.2571076 C129.357361,27.5828924 127.977989,30.5823825 125.766603,32.7294177 L125.776445,32.7392596 L121.767788,36.8024254 L129.722266,44.6509143 L133.799816,40.5188556 L133.793002,40.5120421 C137.956101,36.3512149 140.53542,30.6073656 140.53542,24.2571076 L140.53542,24.2571076 Z" id="Shape" fill="#31D1F6"></path>
            </g>
        </g>
    </g>
</svg>